<svg width="89" height="64" viewBox="0 0 89 64" fill="none" xmlns="http://www.w3.org/2000/svg">
<path d="M14.6341 58.8403L14.6399 58.8438C18.6096 61.2823 23.1333 62.4901 28.1791 62.4901C33.1718 62.4901 37.6427 61.2818 41.5589 58.842C45.5313 56.4011 48.6354 52.8889 50.8782 48.3471C53.1319 43.7835 54.234 38.2843 54.234 31.8896C54.234 25.495 53.1319 19.9957 50.8782 15.4321C48.6354 10.8903 45.5312 7.37814 41.5588 4.93718C37.6427 2.49744 33.1718 1.28909 28.1791 1.28909C23.1333 1.28909 18.6096 2.4969 14.6399 4.9354L14.6399 4.93538L14.6341 4.93897C10.7156 7.38093 7.64031 10.8931 5.39882 15.4321C3.14517 19.9957 2.043 25.495 2.043 31.8896C2.043 38.2843 3.14517 43.7835 5.39882 48.3471C7.64031 52.8862 10.7156 56.3983 14.6341 58.8403ZM32.0662 45.8396L32.0579 45.8462L32.0498 45.853C30.9455 46.7732 29.6707 47.2321 28.1791 47.2321C26.6905 47.2321 25.3832 46.7746 24.2192 45.8463C23.1303 44.9353 22.1641 43.4094 21.389 41.1412C20.678 38.8485 20.3044 35.7776 20.3044 31.8896C20.3044 27.9426 20.679 24.875 21.388 22.6413C22.1632 20.3713 23.1297 18.8444 24.2192 17.933C25.3831 17.0046 26.6905 16.5472 28.1791 16.5472C29.6707 16.5472 30.9455 17.006 32.0498 17.9263L32.0579 17.933L32.0662 17.9396C33.1994 18.8462 34.1648 20.3648 34.8858 22.631C35.5968 24.8656 35.9726 27.9366 35.9726 31.8896C35.9726 35.7834 35.5979 38.8576 34.8848 41.1514C34.1639 43.4159 33.1989 44.9335 32.0662 45.8396ZM69.3936 60.2996V61.3537H70.4478H86.5197H87.5739V60.2996V3.47966V2.42549H86.5197H59.8955H58.8413V3.47966V15.8989V16.953H59.8955H69.3936V60.2996Z" stroke="black" stroke-width="2.10835"/>
</svg>
