<svg width="109" height="64" viewBox="0 0 109 64" fill="none" xmlns="http://www.w3.org/2000/svg">
<path d="M14.6341 58.6196L14.6399 58.6231C18.6096 61.0616 23.1333 62.2694 28.1791 62.2694C33.1718 62.2694 37.6427 61.0611 41.5589 58.6213C45.5313 56.1804 48.6354 52.6682 50.8782 48.1264C53.1319 43.5628 54.234 38.0636 54.234 31.6689C54.234 25.2743 53.1319 19.775 50.8782 15.2114C48.6354 10.6696 45.5312 7.15744 41.5588 4.71647C37.6427 2.27674 33.1718 1.06839 28.1791 1.06839C23.1333 1.06839 18.6096 2.27619 14.6399 4.71469L14.6399 4.71467L14.6341 4.71826C10.7156 7.16023 7.64031 10.6724 5.39882 15.2114C3.14517 19.775 2.043 25.2743 2.043 31.6689C2.043 38.0636 3.14517 43.5628 5.39882 48.1264C7.64031 52.6655 10.7156 56.1776 14.6341 58.6196ZM32.0662 45.6189L32.0579 45.6255L32.0498 45.6323C30.9455 46.5525 29.6707 47.0113 28.1791 47.0113C26.6905 47.0113 25.3832 46.5539 24.2192 45.6256C23.1303 44.7146 22.1641 43.1887 21.389 40.9205C20.678 38.6278 20.3044 35.5569 20.3044 31.6689C20.3044 27.7219 20.679 24.6543 21.388 22.4206C22.1632 20.1506 23.1297 18.6237 24.2192 17.7123C25.3831 16.7839 26.6905 16.3265 28.1791 16.3265C29.6707 16.3265 30.9455 16.7853 32.0498 17.7056L32.0579 17.7123L32.0662 17.7189C33.1994 18.6255 34.1648 20.1441 34.8858 22.4103C35.5968 24.6449 35.9726 27.7159 35.9726 31.6689C35.9726 35.5627 35.5979 38.6369 34.8848 40.9307C34.1639 43.1952 33.1989 44.7127 32.0662 45.6189ZM60.7895 60.0789V61.133H61.8436H106.082H107.136V60.0789V47.335V46.2808H106.082H86.8484L95.5941 38.2079C98.331 35.6899 100.424 33.3827 101.84 31.2879C103.291 29.1667 104.3 27.1392 104.826 25.2091L104.828 25.2015C105.338 23.2766 105.594 21.3461 105.594 19.412C105.594 15.6962 104.59 12.4182 102.555 9.62453C100.589 6.85116 97.8554 4.73569 94.4008 3.26326C90.9436 1.7897 86.9558 1.06839 82.4611 1.06839C76.7512 1.06839 71.7819 2.17755 67.5925 4.44205C63.4366 6.68853 60.2311 9.68512 58.0139 13.4373L57.4641 14.3677L58.4079 14.8942L70.3401 21.5502L71.2207 22.0414L71.7505 21.1836C72.7943 19.4937 74.1172 18.2525 75.7197 17.427C77.3525 16.5859 79.1075 16.1641 81.0001 16.1641C83.3147 16.1641 84.8313 16.657 85.7495 17.45L85.7582 17.4576L85.7671 17.465C86.7337 18.2634 87.2513 19.3796 87.2513 20.9543C87.2513 21.5886 87.1376 22.3255 86.8883 23.1732L86.8822 23.1939L86.8769 23.2149C86.7029 23.9109 86.2908 24.7656 85.5749 25.7883L85.5645 25.8031L85.5547 25.8183C84.9179 26.798 83.8781 27.9754 82.3932 29.3542L82.3905 29.3567L61.1236 49.2437L60.7895 49.5561V50.0136V60.0789Z" stroke="black" stroke-width="2.10835"/>
</svg>
