<svg width="108" height="64" viewBox="0 0 108 64" fill="none" xmlns="http://www.w3.org/2000/svg">
<path d="M14.6341 58.9292L14.6399 58.9327C18.6096 61.3712 23.1333 62.579 28.1791 62.579C33.1718 62.579 37.6427 61.3707 41.5589 58.9309C45.5313 56.4899 48.6354 52.9778 50.8782 48.436C53.1319 43.8724 54.234 38.3731 54.234 31.9785C54.234 25.5838 53.1319 20.0846 50.8782 15.521C48.6354 10.9792 45.5312 7.46701 41.5588 5.02604C37.6427 2.58631 33.1718 1.37796 28.1791 1.37796C23.1333 1.37796 18.6096 2.58576 14.6399 5.02426L14.6399 5.02424L14.6341 5.02783C10.7156 7.4698 7.64031 10.9819 5.39882 15.521C3.14517 20.0846 2.043 25.5838 2.043 31.9785C2.043 38.3731 3.14517 43.8724 5.39882 48.436C7.64031 52.975 10.7156 56.4872 14.6341 58.9292ZM32.0662 45.9285L32.0579 45.9351L32.0498 45.9418C30.9455 46.8621 29.6707 47.3209 28.1791 47.3209C26.6905 47.3209 25.3832 46.8635 24.2192 45.9352C23.1303 45.0242 22.1641 43.4983 21.389 41.23C20.678 38.9374 20.3044 35.8665 20.3044 31.9785C20.3044 28.0315 20.679 24.9639 21.388 22.7301C22.1632 20.4602 23.1297 18.9332 24.2192 18.0218C25.3831 17.0935 26.6905 16.6361 28.1791 16.6361C29.6707 16.6361 30.9455 17.0949 32.0498 18.0151L32.0579 18.0219L32.0662 18.0285C33.1994 18.9351 34.1648 20.4537 34.8858 22.7199C35.5968 24.9545 35.9726 28.0255 35.9726 31.9785C35.9726 35.8723 35.5979 38.9465 34.8848 41.2402C34.1639 43.5047 33.1989 45.0223 32.0662 45.9285ZM68.8179 61.0865L68.8212 61.0873C72.8516 62.0811 76.8867 62.579 80.9246 62.579C86.759 62.579 91.6148 61.6725 95.433 59.7919L95.4331 59.7919L95.4443 59.7862C99.2057 57.8774 102.048 55.4022 103.902 52.335C105.785 49.3087 106.736 46.0615 106.736 42.6119C106.736 37.338 104.771 32.9845 100.853 29.6396C98.7728 27.81 96.1909 26.4943 93.1345 25.666L103.614 14.3501L103.895 14.0469V13.6338V3.56853V2.51435H102.841H61.7682H60.714V3.56853V15.9877V17.0419H61.7682H81.7604L73.2516 26.2296L72.9709 26.5327V26.9459V37.0923V38.1465H74.025H80.7623C83.7812 38.1465 85.7091 38.6596 86.7804 39.4738L86.7913 39.4821L86.8023 39.49C87.878 40.2645 88.3934 41.2709 88.3934 42.6119C88.3934 44.1383 87.7721 45.2663 86.4484 46.1046C85.0521 46.9889 83.0804 47.4833 80.4376 47.4833C77.8954 47.4833 75.262 47.0944 72.5342 46.3078C69.8719 45.5245 67.4541 44.4051 65.2751 42.9524L64.2679 42.2809L63.7412 43.3708L57.8968 55.4654L57.4812 56.3254L58.2963 56.8235C61.3238 58.6737 64.8354 60.0908 68.8179 61.0865Z" stroke="black" stroke-width="2.10835"/>
</svg>
