<svg width="119" height="64" viewBox="0 0 119 64" fill="none" xmlns="http://www.w3.org/2000/svg">
<path d="M14.6341 59.0214L14.6399 59.025C18.6096 61.4635 23.1333 62.6713 28.1791 62.6713C33.1718 62.6713 37.6427 61.4629 41.5589 59.0232C45.5313 56.5822 48.6354 53.07 50.8782 48.5283C53.1319 43.9646 54.234 38.4654 54.234 32.0708C54.234 25.6761 53.1319 20.1769 50.8782 15.6133C48.6354 11.0715 45.5312 7.5593 41.5588 5.11833C37.6427 2.67859 33.1718 1.47024 28.1791 1.47024C23.1333 1.47024 18.6096 2.67805 14.6399 5.11655L14.6399 5.11653L14.6341 5.12012C10.7156 7.56209 7.64031 11.0742 5.39882 15.6133C3.14517 20.1769 2.043 25.6761 2.043 32.0708C2.043 38.4654 3.14517 43.9646 5.39882 48.5283C7.64031 53.0673 10.7156 56.5795 14.6341 59.0214ZM32.0662 46.0208L32.0579 46.0274L32.0498 46.0341C30.9455 46.9544 29.6707 47.4132 28.1791 47.4132C26.6905 47.4132 25.3832 46.9558 24.2192 46.0274C23.1303 45.1165 22.1641 43.5905 21.389 41.3223C20.678 39.0297 20.3044 35.9588 20.3044 32.0708C20.3044 28.1238 20.679 25.0562 21.388 22.8224C22.1632 20.5524 23.1297 19.0255 24.2192 18.1141C25.3831 17.1858 26.6905 16.7283 28.1791 16.7283C29.6707 16.7283 30.9455 17.1872 32.0498 18.1074L32.0579 18.1142L32.0662 18.1208C33.1994 19.0274 34.1648 20.5459 34.8858 22.8122C35.5968 25.0468 35.9726 28.1178 35.9726 32.0708C35.9726 35.9646 35.5979 39.0388 34.8848 41.3325C34.1639 43.597 33.1989 45.1146 32.0662 46.0208ZM61.1008 49.6038V50.6579H62.155H91.1342V60.4807V61.5349H92.1884H107.854H108.909V60.4807V50.6579H116.296H117.35V49.6038V36.8599V35.8057H116.296H108.909V27.2005V26.1463H107.854H92.6754H91.6212V27.2005V35.8057H83.1332L105.147 4.26415L106.304 2.60664H104.283H87.6428H87.1022L86.7867 3.04568L61.2989 38.5175L61.1008 38.7932V39.1327V49.6038Z" stroke="black" stroke-width="2.10835"/>
</svg>
