<svg width="110" height="65" viewBox="0 0 110 65" fill="none" xmlns="http://www.w3.org/2000/svg">
<path d="M14.6341 59.3037L14.6399 59.3072C18.6096 61.7457 23.1333 62.9535 28.1791 62.9535C33.1718 62.9535 37.6427 61.7452 41.5589 59.3054C45.5313 56.8644 48.6354 53.3523 50.8782 48.8105C53.1319 44.2469 54.234 38.7476 54.234 32.353C54.234 25.9584 53.1319 20.4591 50.8782 15.8955C48.6354 11.3537 45.5312 7.84152 41.5588 5.40055C37.6427 2.96082 33.1718 1.75247 28.1791 1.75247C23.1333 1.75247 18.6096 2.96028 14.6399 5.39878L14.6399 5.39876L14.6341 5.40235C10.7156 7.84431 7.64031 11.3565 5.39882 15.8955C3.14517 20.4591 2.043 25.9584 2.043 32.353C2.043 38.7476 3.14517 44.2469 5.39882 48.8105C7.64031 53.3495 10.7156 56.8617 14.6341 59.3037ZM32.0662 46.303L32.0579 46.3096L32.0498 46.3163C30.9455 47.2366 29.6707 47.6954 28.1791 47.6954C26.6905 47.6954 25.3832 47.238 24.2192 46.3097C23.1303 45.3987 22.1641 43.8728 21.389 41.6046C20.678 39.3119 20.3044 36.241 20.3044 32.353C20.3044 28.406 20.679 25.3384 21.388 23.1046C22.1632 20.8347 23.1297 19.3077 24.2192 18.3963C25.3831 17.468 26.6905 17.0106 28.1791 17.0106C29.6707 17.0106 30.9455 17.4694 32.0498 18.3897L32.0579 18.3964L32.0662 18.403C33.1994 19.3096 34.1648 20.8282 34.8858 23.0944C35.5968 25.329 35.9726 28.4 35.9726 32.353C35.9726 36.2468 35.5979 39.321 34.8848 41.6148C34.1639 43.8792 33.1989 45.3968 32.0662 46.303ZM59.6611 55.8451L59.2559 56.6955L60.0555 57.1934C63.0348 59.0484 66.5512 60.4664 70.588 61.4618C74.6172 62.4553 78.6252 62.9535 82.6102 62.9535C88.4482 62.9535 93.3083 62.0189 97.1298 60.0796C100.898 58.1676 103.742 55.6611 105.594 52.5364C107.474 49.4029 108.422 46.0514 108.422 42.4994C108.422 38.9746 107.595 35.7842 105.923 32.9568C104.225 30.0315 101.554 27.7629 97.9927 26.1221C94.3906 24.4085 89.7011 23.5876 83.9901 23.5876H81.341L81.8553 17.4164H103.796H104.85V16.3622V3.94304V2.88887H103.796H67.5935H66.6257L66.5431 3.85316L63.7021 37.0522L63.6042 38.1963H64.7525H80.175C83.06 38.1963 85.1812 38.4392 86.5998 38.8794L86.6158 38.8844L86.6319 38.8889C88.0683 39.2851 88.9212 39.8612 89.379 40.5098L89.3878 40.5223L89.3969 40.5344C89.9023 41.2083 90.1601 41.9848 90.1601 42.9053C90.1601 44.4148 89.5258 45.5774 88.1367 46.4773C86.677 47.3685 84.6984 47.8578 82.1231 47.8578C79.5253 47.8578 76.8936 47.4684 74.2253 46.6839C71.6151 45.9006 69.1916 44.7795 66.9511 43.3206L65.9422 42.6636L65.4243 43.7505L59.6611 55.8451Z" stroke="black" stroke-width="2.10835"/>
</svg>
