<svg width="1920" height="2533" viewBox="0 0 1920 2533" fill="none" xmlns="http://www.w3.org/2000/svg">
<g clip-path="url(#clip0_1164_322)">
<g opacity="0.25">
<path fill-rule="evenodd" clip-rule="evenodd" d="M140.151 1583.06C91.6917 1618.28 56.1734 1677.79 -3.73867 1678.89C-65.3273 1680.01 -116.243 1634.83 -156.868 1588.49C-195.943 1543.93 -213.296 1488.9 -221.747 1430.25C-232.787 1353.63 -262.081 1265.94 -211.824 1207.1C-159.816 1146.22 -66.5242 1148.98 13.3486 1155.03C89.162 1160.78 161.437 1186.42 215.887 1239.52C273.055 1295.27 331.039 1370.13 313.856 1448.08C297.442 1522.54 201.818 1538.25 140.151 1583.06Z" stroke="#425AE5"/>
<path fill-rule="evenodd" clip-rule="evenodd" d="M109.92 1575.59C62.3647 1610.15 27.5092 1668.55 -31.2848 1669.63C-91.7242 1670.73 -141.689 1626.39 -181.557 1580.92C-219.903 1537.19 -236.932 1483.19 -245.225 1425.63C-256.06 1350.44 -284.807 1264.38 -235.487 1206.65C-184.45 1146.9 -92.8988 1149.61 -14.5164 1155.55C59.8823 1161.19 130.808 1186.35 184.242 1238.46C240.344 1293.17 297.246 1366.63 280.384 1443.12C264.276 1516.19 170.436 1531.61 109.92 1575.59Z" stroke="#425AE5"/>
<path fill-rule="evenodd" clip-rule="evenodd" d="M75.2599 1571.33C27.7046 1605.89 -7.15095 1664.29 -65.945 1665.36C-126.384 1666.47 -176.35 1622.12 -216.217 1576.66C-254.563 1532.92 -271.592 1478.92 -279.885 1421.37C-290.72 1346.18 -319.467 1260.12 -270.147 1202.38C-219.11 1142.63 -127.559 1145.34 -49.1766 1151.28C25.2221 1156.92 96.1481 1182.09 149.582 1234.19C205.684 1288.9 262.586 1362.37 245.724 1438.86C229.615 1511.93 135.776 1527.35 75.2599 1571.33Z" stroke="#425AE5"/>
<path fill-rule="evenodd" clip-rule="evenodd" d="M40.5997 1567.06C-6.9556 1601.62 -41.8111 1660.02 -100.605 1661.1C-161.044 1662.2 -211.01 1617.86 -250.877 1572.39C-289.223 1528.66 -306.252 1474.66 -314.545 1417.1C-325.38 1341.91 -354.127 1255.86 -304.808 1198.12C-253.77 1138.37 -162.219 1141.08 -83.8367 1147.02C-9.43805 1152.66 61.4879 1177.82 114.922 1229.93C171.024 1284.64 227.926 1358.11 211.064 1434.6C194.955 1507.67 101.116 1523.08 40.5997 1567.06Z" stroke="#425AE5"/>
<path fill-rule="evenodd" clip-rule="evenodd" d="M5.93956 1562.8C-41.6158 1597.36 -76.4713 1655.76 -135.265 1656.83C-195.705 1657.94 -245.67 1613.6 -285.538 1568.13C-323.883 1524.39 -340.912 1470.39 -349.206 1412.84C-360.04 1337.65 -388.787 1251.59 -339.468 1193.85C-288.43 1134.11 -196.879 1136.81 -118.497 1142.75C-44.0982 1148.39 26.8278 1173.56 80.2616 1225.67C136.364 1280.37 193.266 1353.84 176.403 1430.33C160.295 1503.4 66.4554 1518.82 5.93956 1562.8Z" stroke="#425AE5"/>
<path fill-rule="evenodd" clip-rule="evenodd" d="M-28.7206 1558.54C-76.2759 1593.1 -111.131 1651.49 -169.925 1652.57C-230.365 1653.67 -280.33 1609.33 -320.198 1563.86C-358.543 1520.13 -375.572 1466.13 -383.866 1408.57C-394.7 1333.38 -423.447 1247.33 -374.128 1189.59C-323.09 1129.84 -231.539 1132.55 -153.157 1138.49C-78.7584 1144.13 -7.8324 1169.29 45.6014 1221.4C101.704 1276.11 158.606 1349.58 141.743 1426.07C125.635 1499.14 31.7953 1514.56 -28.7206 1558.54Z" stroke="#425AE5"/>
<path fill-rule="evenodd" clip-rule="evenodd" d="M-63.3808 1554.27C-110.936 1588.83 -145.792 1647.23 -204.586 1648.3C-265.025 1649.41 -314.99 1605.07 -354.858 1559.6C-393.203 1515.87 -410.232 1461.87 -418.526 1404.31C-429.36 1329.12 -458.108 1243.06 -408.788 1185.33C-357.75 1125.58 -266.2 1128.29 -187.817 1134.23C-113.419 1139.86 -42.4926 1165.03 10.9413 1217.14C67.0435 1271.85 123.945 1345.31 107.083 1421.8C90.9748 1494.87 -2.86489 1510.29 -63.3808 1554.27Z" stroke="#425AE5"/>
<path fill-rule="evenodd" clip-rule="evenodd" d="M-98.0409 1550.01C-145.596 1584.57 -180.452 1642.97 -239.246 1644.04C-299.685 1645.14 -349.65 1600.8 -389.518 1555.33C-427.864 1511.6 -444.893 1457.6 -453.186 1400.05C-464.02 1324.86 -492.768 1238.8 -443.448 1181.06C-392.41 1121.31 -300.86 1124.02 -222.477 1129.96C-148.079 1135.6 -77.1527 1160.77 -23.7189 1212.87C32.3833 1267.58 89.2853 1341.05 72.4229 1417.54C56.3147 1490.61 -37.525 1506.03 -98.0409 1550.01Z" stroke="#425AE5"/>
<path fill-rule="evenodd" clip-rule="evenodd" d="M-132.701 1545.74C-180.256 1580.3 -215.112 1638.7 -273.906 1639.78C-334.345 1640.88 -384.31 1596.54 -424.178 1551.07C-462.524 1507.34 -479.553 1453.34 -487.846 1395.78C-498.681 1320.59 -527.428 1234.53 -478.108 1176.8C-427.071 1117.05 -335.52 1119.76 -257.138 1125.7C-182.739 1131.34 -111.813 1156.5 -58.379 1208.61C-2.27685 1263.32 54.6251 1336.79 37.7628 1413.28C21.6545 1486.34 -72.1852 1501.76 -132.701 1545.74Z" stroke="#425AE5"/>
</g>
<g opacity="0.25">
<path fill-rule="evenodd" clip-rule="evenodd" d="M1725.19 949.692C1681.07 909.171 1615.7 886.149 1602.75 827.641C1589.45 767.497 1623.65 708.638 1661.01 659.637C1696.95 612.507 1747.45 584.595 1803.26 564.691C1876.18 538.688 1956.33 492.599 2023.95 530.202C2093.93 569.115 2109.71 661.104 2119.61 740.593C2129 816.042 2118.18 891.964 2076.93 955.856C2033.61 1022.94 1971.72 1094.61 1891.91 1093.21C1815.68 1091.87 1781.33 1001.26 1725.19 949.692Z" stroke="#FDAE38"/>
<path fill-rule="evenodd" clip-rule="evenodd" d="M1725.19 949.692C1681.07 909.171 1615.7 886.148 1602.75 827.641C1589.45 767.497 1623.65 708.638 1661.01 659.637C1696.95 612.507 1747.45 584.595 1803.26 564.691C1876.18 538.687 1956.33 492.598 2023.95 530.202C2093.93 569.115 2109.71 661.104 2119.61 740.593C2129 816.041 2118.18 891.964 2076.93 955.855C2033.61 1022.94 1971.72 1094.61 1891.91 1093.21C1815.68 1091.87 1781.33 1001.26 1725.19 949.692Z" stroke="#FDAE38"/>
<path fill-rule="evenodd" clip-rule="evenodd" d="M1750.13 937.99C1708.07 899.355 1645.74 877.403 1633.4 821.619C1620.71 764.273 1653.32 708.153 1688.95 661.433C1723.21 616.496 1771.36 589.883 1824.58 570.905C1894.1 546.112 1970.52 502.168 2035 538.021C2101.72 575.124 2116.77 662.832 2126.2 738.621C2135.15 810.559 2124.84 882.949 2085.5 943.867C2044.2 1007.83 1985.19 1076.16 1909.1 1074.83C1836.42 1073.55 1803.67 987.155 1750.13 937.99Z" stroke="#FDAE38"/>
<path fill-rule="evenodd" clip-rule="evenodd" d="M1771.4 920.765C1732.25 884.806 1674.24 864.374 1662.75 812.453C1650.94 759.079 1681.29 706.845 1714.45 663.36C1746.35 621.536 1791.16 596.766 1840.69 579.102C1905.39 556.026 1976.52 515.125 2036.54 548.495C2098.64 583.028 2112.65 664.662 2121.42 735.203C2129.76 802.159 2120.16 869.535 2083.55 926.235C2045.11 985.765 1990.18 1049.37 1919.36 1048.13C1851.71 1046.94 1821.23 966.525 1771.4 920.765Z" stroke="#FDAE38"/>
<path fill-rule="evenodd" clip-rule="evenodd" d="M1803.88 920.765C1764.73 884.806 1706.72 864.375 1695.23 812.453C1683.42 759.079 1713.77 706.846 1746.93 663.361C1778.82 621.536 1823.64 596.766 1873.17 579.102C1937.87 556.026 2009 515.125 2069.02 548.496C2131.12 583.029 2145.12 664.663 2153.9 735.204C2162.24 802.159 2152.64 869.536 2116.03 926.235C2077.59 985.766 2022.66 1049.37 1951.84 1048.13C1884.19 1046.94 1853.71 966.525 1803.88 920.765Z" stroke="#FDAE38"/>
<path fill-rule="evenodd" clip-rule="evenodd" d="M1836.36 920.766C1797.21 884.806 1739.2 864.375 1727.71 812.454C1715.9 759.079 1746.25 706.846 1779.41 663.361C1811.3 621.536 1856.12 596.766 1905.65 579.102C1970.35 556.026 2041.48 515.125 2101.5 548.496C2163.6 583.029 2177.6 664.663 2186.38 735.204C2194.72 802.16 2185.12 869.536 2148.51 926.235C2110.07 985.766 2055.14 1049.37 1984.32 1048.13C1916.67 1046.94 1886.19 966.525 1836.36 920.766Z" stroke="#FDAE38"/>
<path fill-rule="evenodd" clip-rule="evenodd" d="M1868.84 920.766C1829.68 884.806 1771.68 864.375 1760.19 812.454C1748.38 759.08 1778.73 706.846 1811.89 663.361C1843.78 621.536 1888.6 596.767 1938.13 579.103C2002.83 556.026 2073.96 515.126 2133.97 548.496C2196.08 583.029 2210.08 664.663 2218.86 735.204C2227.19 802.16 2217.6 869.536 2180.98 926.235C2142.54 985.766 2087.62 1049.37 2016.8 1048.13C1949.15 1046.94 1918.66 966.526 1868.84 920.766Z" stroke="#FDAE38"/>
<path fill-rule="evenodd" clip-rule="evenodd" d="M1901.32 920.766C1862.16 884.807 1804.15 864.375 1792.67 812.454C1780.86 759.08 1811.21 706.846 1844.37 663.361C1876.26 621.537 1921.07 596.767 1970.6 579.103C2035.31 556.027 2106.44 515.126 2166.45 548.496C2228.56 583.029 2242.56 664.663 2251.34 735.204C2259.67 802.16 2250.08 869.536 2213.46 926.236C2175.02 985.766 2120.1 1049.37 2049.28 1048.13C1981.62 1046.94 1951.14 966.526 1901.32 920.766Z" stroke="#FDAE38"/>
<path fill-rule="evenodd" clip-rule="evenodd" d="M1933.8 920.766C1894.64 884.807 1836.63 864.376 1825.15 812.454C1813.34 759.08 1843.69 706.847 1876.85 663.362C1908.74 621.537 1953.55 596.767 2003.08 579.103C2067.79 556.027 2138.92 515.126 2198.93 548.497C2261.04 583.03 2275.04 664.664 2283.82 735.205C2292.15 802.16 2282.55 869.537 2245.94 926.236C2207.5 985.766 2152.58 1049.37 2081.76 1048.13C2014.1 1046.94 1983.62 966.526 1933.8 920.766Z" stroke="#FDAE38"/>
<path fill-rule="evenodd" clip-rule="evenodd" d="M1966.28 920.767C1927.12 884.807 1869.11 864.376 1857.63 812.454C1845.82 759.08 1876.17 706.847 1909.33 663.362C1941.22 621.537 1986.03 596.767 2035.56 579.103C2100.27 556.027 2171.4 515.126 2231.41 548.497C2293.52 583.03 2307.52 664.664 2316.3 735.205C2324.63 802.161 2315.03 869.537 2278.42 926.236C2239.98 985.767 2185.06 1049.37 2114.24 1048.13C2046.58 1046.94 2016.1 966.526 1966.28 920.767Z" stroke="#FDAE38"/>
</g>
<g opacity="0.25">
<path fill-rule="evenodd" clip-rule="evenodd" d="M1690.53 2202.23C1678.87 2264.93 1637.93 2326.31 1664.3 2384.4C1691.41 2444.11 1758.15 2472.36 1821.29 2490.2C1882.01 2507.36 1942.84 2498.85 2003.08 2480.12C2081.78 2455.66 2179.48 2443.67 2213.03 2368.43C2247.74 2290.57 2202.38 2202.16 2160 2128.16C2119.77 2057.92 2062.03 2000.19 1986.07 1972.16C1906.31 1942.73 1807.81 1921.27 1740.76 1973.47C1676.7 2023.33 1705.38 2122.44 1690.53 2202.23Z" stroke="#425AE5"/>
<path fill-rule="evenodd" clip-rule="evenodd" d="M1714.56 2197.22C1703.35 2257.48 1664 2316.47 1689.35 2372.3C1715.41 2429.69 1779.55 2456.84 1840.22 2473.98C1898.58 2490.47 1957.05 2482.29 2014.94 2464.3C2090.58 2440.79 2184.48 2429.26 2216.71 2356.95C2250.08 2282.12 2206.48 2197.16 2165.75 2126.04C2127.08 2058.53 2071.6 2003.05 1998.59 1976.12C1921.94 1947.83 1827.27 1927.21 1762.83 1977.37C1701.27 2025.29 1728.83 2120.54 1714.56 2197.22Z" stroke="#425AE5"/>
<path fill-rule="evenodd" clip-rule="evenodd" d="M1701.88 2195.12C1690.67 2255.38 1651.32 2314.37 1676.67 2370.2C1702.73 2427.59 1766.87 2454.74 1827.54 2471.89C1885.9 2488.37 1944.37 2480.19 2002.26 2462.2C2077.9 2438.69 2171.79 2427.16 2204.03 2354.85C2237.39 2280.02 2193.8 2195.06 2153.07 2123.94C2114.4 2056.43 2058.92 2000.95 1985.91 1974.02C1909.26 1945.73 1814.59 1925.11 1750.15 1975.27C1688.59 2023.2 1716.15 2118.44 1701.88 2195.12Z" stroke="#425AE5"/>
<path fill-rule="evenodd" clip-rule="evenodd" d="M1736.39 2204.17C1725.18 2264.42 1685.83 2323.42 1711.18 2379.24C1737.24 2436.63 1801.38 2463.78 1862.05 2480.93C1920.41 2497.42 1978.87 2489.24 2036.77 2471.24C2112.41 2447.73 2206.3 2436.21 2238.54 2363.9C2271.9 2289.07 2228.31 2204.1 2187.57 2132.98C2148.91 2065.48 2093.42 2010 2020.42 1983.06C1943.77 1954.78 1849.1 1934.15 1784.66 1984.32C1723.1 2032.24 1750.66 2127.48 1736.39 2204.17Z" stroke="#425AE5"/>
<path fill-rule="evenodd" clip-rule="evenodd" d="M1758.21 2211.11C1747 2271.37 1707.66 2330.36 1733 2386.19C1759.06 2443.57 1823.2 2470.73 1883.88 2487.87C1942.23 2504.36 2000.7 2496.18 2058.6 2478.18C2134.23 2454.67 2228.13 2443.15 2260.37 2370.84C2293.73 2296.01 2250.13 2211.04 2209.4 2139.92C2170.74 2072.42 2115.25 2016.94 2042.25 1990C1965.59 1961.72 1870.93 1941.09 1806.48 1991.26C1744.92 2039.18 1772.48 2134.43 1758.21 2211.11Z" stroke="#425AE5"/>
<path fill-rule="evenodd" clip-rule="evenodd" d="M1780.04 2218.05C1768.83 2278.31 1729.48 2337.3 1754.83 2393.13C1780.89 2450.52 1845.03 2477.67 1905.7 2494.81C1964.06 2511.3 2022.53 2503.12 2080.42 2485.12C2156.06 2461.61 2249.95 2450.09 2282.19 2377.78C2315.55 2302.95 2271.96 2217.99 2231.23 2146.87C2192.56 2079.36 2137.08 2023.88 2064.07 1996.94C1987.42 1968.66 1892.75 1948.04 1828.31 1998.2C1766.75 2046.12 1794.31 2141.37 1780.04 2218.05Z" stroke="#425AE5"/>
<path fill-rule="evenodd" clip-rule="evenodd" d="M1801.87 2224.99C1790.65 2285.25 1751.31 2344.24 1776.66 2400.07C1802.71 2457.46 1866.86 2484.61 1927.53 2501.76C1985.89 2518.24 2044.35 2510.06 2102.25 2492.07C2177.89 2468.56 2271.78 2457.03 2304.02 2384.72C2337.38 2309.89 2293.79 2224.93 2253.05 2153.81C2214.39 2086.3 2158.9 2030.82 2085.9 2003.89C2009.25 1975.6 1914.58 1954.98 1850.14 2005.14C1788.58 2053.07 1816.13 2148.31 1801.87 2224.99Z" stroke="#425AE5"/>
<path fill-rule="evenodd" clip-rule="evenodd" d="M1823.69 2231.94C1812.48 2292.2 1773.14 2351.19 1798.48 2407.01C1824.54 2464.4 1888.68 2491.55 1949.36 2508.7C2007.71 2525.19 2066.18 2517.01 2124.08 2499.01C2199.71 2475.5 2293.61 2463.98 2325.85 2391.67C2359.21 2316.84 2315.61 2231.87 2274.88 2160.75C2236.22 2093.25 2180.73 2037.77 2107.72 2010.83C2031.07 1982.55 1936.41 1961.92 1871.96 2012.09C1810.4 2060.01 1837.96 2155.25 1823.69 2231.94Z" stroke="#425AE5"/>
<path fill-rule="evenodd" clip-rule="evenodd" d="M1845.52 2238.88C1834.31 2299.14 1794.96 2358.13 1820.31 2413.96C1846.37 2471.34 1910.51 2498.5 1971.18 2515.64C2029.54 2532.13 2088.01 2523.95 2145.9 2505.95C2221.54 2482.44 2315.43 2470.92 2347.67 2398.61C2381.03 2323.78 2337.44 2238.81 2296.71 2167.7C2258.04 2100.19 2202.56 2044.71 2129.55 2017.77C2052.9 1989.49 1958.23 1968.86 1893.79 2019.03C1832.23 2066.95 1859.79 2162.2 1845.52 2238.88Z" stroke="#425AE5"/>
<path fill-rule="evenodd" clip-rule="evenodd" d="M1867.35 2245.82C1856.13 2306.08 1816.79 2365.07 1842.14 2420.9C1868.19 2478.29 1932.33 2505.44 1993.01 2522.58C2051.37 2539.07 2109.83 2530.89 2167.73 2512.9C2243.36 2489.38 2337.26 2477.86 2369.5 2405.55C2402.86 2330.72 2359.26 2245.76 2318.53 2174.64C2279.87 2107.13 2224.38 2051.65 2151.38 2024.71C2074.73 1996.43 1980.06 1975.81 1915.62 2025.97C1854.06 2073.89 1881.61 2169.14 1867.35 2245.82Z" stroke="#425AE5"/>
<path fill-rule="evenodd" clip-rule="evenodd" d="M1889.17 2252.76C1877.96 2313.02 1838.62 2372.01 1863.96 2427.84C1890.02 2485.23 1954.16 2512.38 2014.83 2529.53C2073.19 2546.01 2131.66 2537.83 2189.56 2519.84C2265.19 2496.33 2359.09 2484.81 2391.32 2412.49C2424.69 2337.66 2381.09 2252.7 2340.36 2181.58C2301.7 2114.08 2246.21 2058.59 2173.2 2031.66C2096.55 2003.37 2001.88 1982.75 1937.44 2032.91C1875.88 2080.84 1903.44 2176.08 1889.17 2252.76Z" stroke="#425AE5"/>
<path fill-rule="evenodd" clip-rule="evenodd" d="M1911 2259.71C1899.79 2319.97 1860.44 2378.96 1885.79 2434.78C1911.85 2492.17 1975.99 2519.32 2036.66 2536.47C2095.02 2552.96 2153.48 2544.78 2211.38 2526.78C2287.02 2503.27 2380.91 2491.75 2413.15 2419.44C2446.51 2344.61 2402.92 2259.64 2362.18 2188.52C2323.52 2121.02 2268.03 2065.54 2195.03 2038.6C2118.38 2010.32 2023.71 1989.69 1959.27 2039.86C1897.71 2087.78 1925.27 2183.02 1911 2259.71Z" stroke="#425AE5"/>
<path fill-rule="evenodd" clip-rule="evenodd" d="M1932.82 2266.65C1921.61 2326.91 1882.27 2385.9 1907.62 2441.73C1933.67 2499.11 1997.81 2526.27 2058.49 2543.41C2116.84 2559.9 2175.31 2551.72 2233.21 2533.72C2308.84 2510.21 2402.74 2498.69 2434.98 2426.38C2468.34 2351.55 2424.74 2266.59 2384.01 2195.47C2345.35 2127.96 2289.86 2072.48 2216.86 2045.54C2140.2 2017.26 2045.54 1996.63 1981.1 2046.8C1919.54 2094.72 1947.09 2189.97 1932.82 2266.65Z" stroke="#425AE5"/>
<path fill-rule="evenodd" clip-rule="evenodd" d="M1954.65 2273.59C1943.44 2333.85 1904.09 2392.84 1929.44 2448.67C1955.5 2506.06 2019.64 2533.21 2080.31 2550.35C2138.67 2566.84 2197.14 2558.66 2255.03 2540.67C2330.67 2517.15 2424.57 2505.63 2456.8 2433.32C2490.16 2358.49 2446.57 2273.53 2405.84 2202.41C2367.17 2134.9 2311.69 2079.42 2238.68 2052.48C2162.03 2024.2 2067.36 2003.58 2002.92 2053.74C1941.36 2101.66 1968.92 2196.91 1954.65 2273.59Z" stroke="#425AE5"/>
<path fill-rule="evenodd" clip-rule="evenodd" d="M1976.48 2280.53C1965.27 2340.79 1925.92 2399.79 1951.27 2455.61C1977.33 2513 2041.47 2540.15 2102.14 2557.3C2160.5 2573.79 2218.96 2565.61 2276.86 2547.61C2352.5 2524.1 2446.39 2512.58 2478.63 2440.27C2511.99 2365.44 2468.4 2280.47 2427.66 2209.35C2389 2141.85 2333.51 2086.36 2260.51 2059.43C2183.86 2031.14 2089.19 2010.52 2024.75 2060.68C1963.19 2108.61 1990.75 2203.85 1976.48 2280.53Z" stroke="#425AE5"/>
<path fill-rule="evenodd" clip-rule="evenodd" d="M1998.3 2287.48C1987.09 2347.74 1947.75 2406.73 1973.09 2462.55C1999.15 2519.94 2063.29 2547.1 2123.97 2564.24C2182.32 2580.73 2240.79 2572.55 2298.69 2554.55C2374.32 2531.04 2468.22 2519.52 2500.46 2447.21C2533.82 2372.38 2490.22 2287.41 2449.49 2216.29C2410.83 2148.79 2355.34 2093.31 2282.34 2066.37C2205.68 2038.09 2111.02 2017.46 2046.57 2067.63C1985.01 2115.55 2012.57 2210.8 1998.3 2287.48Z" stroke="#425AE5"/>
<path fill-rule="evenodd" clip-rule="evenodd" d="M2020.13 2294.42C2008.92 2354.68 1969.57 2413.67 1994.92 2469.5C2020.98 2526.88 2085.12 2554.04 2145.79 2571.18C2204.15 2587.67 2262.62 2579.49 2320.51 2561.49C2396.15 2537.98 2490.04 2526.46 2522.28 2454.15C2555.64 2379.32 2512.05 2294.36 2471.32 2223.24C2432.65 2155.73 2377.17 2100.25 2304.16 2073.31C2227.51 2045.03 2132.84 2024.4 2068.4 2074.57C2006.84 2122.49 2034.4 2217.74 2020.13 2294.42Z" stroke="#425AE5"/>
</g>
</g>
<defs>
<clipPath id="clip0_1164_322">
<rect width="1920" height="2533" fill="white"/>
</clipPath>
</defs>
</svg>
