<svg width="219" height="68" viewBox="0 0 219 68" fill="none" xmlns="http://www.w3.org/2000/svg">
<path d="M1.12305 29.5118C1.12305 18.5254 10.0293 9.61914 21.0157 9.61914H25.1268V37.2478C25.1268 48.2342 16.2206 57.1404 5.23419 57.1404H1.12305V29.5118Z" fill="#6C3FEA"/>
<path d="M30.6974 18.8338C30.6974 13.7447 34.823 9.61914 39.9121 9.61914C45.0013 9.61914 49.1268 13.7447 49.1268 18.8338C49.1268 23.923 45.0013 28.0485 39.9121 28.0485C34.823 28.0485 30.6974 23.923 30.6974 18.8338Z" fill="#FDAE38"/>
<path d="M54.6974 45.6191C54.6974 52.2466 49.3248 57.6191 42.6974 57.6191C36.07 57.6191 30.6974 52.2466 30.6974 45.6191V34.5476C30.6974 34.0348 31.1131 33.6191 31.6258 33.6191H42.6974C49.3248 33.6191 54.6974 38.9917 54.6974 45.6191Z" fill="#3EEDF9"/>
<path d="M100.492 12.5539H108.235V46.0117H100.492V12.5539ZM85.2923 46.0117H77.5492V12.5539H85.2923V46.0117ZM101.065 32.294H84.7187V25.7459H101.065V32.294ZM124.085 46.3941C121.95 46.3941 120.038 45.9799 118.349 45.1514C116.692 44.3229 115.402 43.0642 114.478 41.3754C113.554 39.6547 113.092 37.472 113.092 34.8273V20.297H120.548V33.7279C120.548 35.8629 120.994 37.4401 121.886 38.4598C122.81 39.4476 124.101 39.9415 125.758 39.9415C126.905 39.9415 127.925 39.7025 128.817 39.2246C129.709 38.7147 130.41 37.95 130.92 36.9303C131.43 35.8788 131.685 34.5723 131.685 33.011V20.297H139.141V46.0117H132.067V38.9378L133.358 40.993C132.497 42.7775 131.223 44.1317 129.534 45.0558C127.877 45.948 126.061 46.3941 124.085 46.3941ZM159.289 19.9146C161.328 19.9146 163.144 20.3289 164.737 21.1574C166.362 21.954 167.637 23.1967 168.561 24.8855C169.485 26.5425 169.947 28.6774 169.947 31.2903V46.0117H162.491V32.4374C162.491 30.3662 162.029 28.8367 161.105 27.8489C160.213 26.8611 158.938 26.3672 157.281 26.3672C156.102 26.3672 155.035 26.6221 154.079 27.132C153.155 27.6099 152.422 28.3587 151.88 29.3784C151.37 30.3981 151.115 31.7045 151.115 33.2978V46.0117H143.659V20.297H150.781V27.4187L149.442 25.2679C150.366 23.5472 151.689 22.2248 153.41 21.3007C155.13 20.3767 157.09 19.9146 159.289 19.9146ZM190.089 46.0117V40.993L189.611 39.8937V30.9079C189.611 29.3147 189.117 28.072 188.129 27.1798C187.174 26.2875 185.692 25.8414 183.684 25.8414C182.314 25.8414 180.96 26.0645 179.622 26.5106C178.315 26.9248 177.2 27.4984 176.276 28.2313L173.599 23.0214C175.001 22.0336 176.69 21.2689 178.666 20.7272C180.641 20.1855 182.649 19.9146 184.688 19.9146C188.607 19.9146 191.65 20.8387 193.817 22.6869C195.984 24.535 197.067 27.4187 197.067 31.3381V46.0117H190.089ZM182.25 46.3941C180.243 46.3941 178.522 46.0595 177.088 45.3904C175.654 44.6893 174.555 43.7493 173.79 42.5703C173.026 41.3914 172.643 40.069 172.643 38.6032C172.643 37.0737 173.01 35.7354 173.743 34.5883C174.507 33.4411 175.702 32.5489 177.327 31.9116C178.952 31.2425 181.071 30.9079 183.684 30.9079H190.519V35.2574H184.497C182.744 35.2574 181.533 35.5442 180.864 36.1178C180.227 36.6913 179.908 37.4083 179.908 38.2686C179.908 39.2246 180.275 39.9893 181.008 40.5629C181.772 41.1046 182.808 41.3754 184.115 41.3754C185.357 41.3754 186.472 41.0886 187.46 40.5151C188.448 39.9097 189.165 39.0334 189.611 37.8863L190.758 41.3276C190.217 42.9846 189.229 44.2432 187.795 45.1036C186.361 45.9639 184.513 46.3941 182.25 46.3941ZM201.426 46.0117V20.297H208.548V27.5621L207.544 25.4591C208.309 23.6428 209.535 22.2726 211.224 21.3485C212.913 20.3926 214.968 19.9146 217.39 19.9146V26.7974C217.071 26.7655 216.785 26.7496 216.53 26.7496C216.275 26.7177 216.004 26.7018 215.717 26.7018C213.678 26.7018 212.021 27.2913 210.746 28.4703C209.504 29.6174 208.882 31.4177 208.882 33.8713V46.0117H201.426Z" fill="white"/>
<path opacity="0.6" d="M75.2549 63.2249V52.0723H79.9549C81.1446 52.0723 82.1908 52.3059 83.0936 52.7733C84.0071 53.2406 84.7134 53.8938 85.2126 54.7329C85.7224 55.572 85.9774 56.5439 85.9774 57.6486C85.9774 58.7532 85.7224 59.7251 85.2126 60.5642C84.7134 61.4033 84.0071 62.0565 83.0936 62.5238C82.1908 62.9912 81.1446 63.2249 79.9549 63.2249H75.2549ZM76.8481 61.8387H79.8594C80.7834 61.8387 81.58 61.6635 82.2492 61.313C82.929 60.9625 83.4547 60.4739 83.8265 59.8472C84.1982 59.2099 84.3841 58.477 84.3841 57.6486C84.3841 56.8095 84.1982 56.0766 83.8265 55.4499C83.4547 54.8232 82.929 54.3346 82.2492 53.9841C81.58 53.6336 80.7834 53.4584 79.8594 53.4584H76.8481V61.8387ZM91.9547 63.3204C91.0519 63.3204 90.2553 63.1346 89.5649 62.7628C88.8851 62.3911 88.354 61.8812 87.9716 61.2333C87.5999 60.5854 87.414 59.8419 87.414 59.0028C87.414 58.1637 87.5946 57.4202 87.9557 56.7723C88.3274 56.1244 88.832 55.6198 89.4693 55.2587C90.1172 54.887 90.8447 54.7011 91.652 54.7011C92.4698 54.7011 93.1921 54.8816 93.8188 55.2428C94.4454 55.6039 94.934 56.1137 95.2845 56.7723C95.6457 57.4202 95.8262 58.1796 95.8262 59.0506C95.8262 59.1143 95.8209 59.1887 95.8103 59.2736C95.8103 59.3586 95.805 59.4383 95.7944 59.5126H88.6089V58.4133H94.9978L94.3764 58.7957C94.387 58.254 94.2755 57.7707 94.0418 57.3458C93.8082 56.921 93.4842 56.5917 93.07 56.358C92.6663 56.1137 92.1937 55.9916 91.652 55.9916C91.1209 55.9916 90.6482 56.1137 90.234 56.358C89.8198 56.5917 89.4958 56.9263 89.2621 57.3618C89.0285 57.7866 88.9116 58.2752 88.9116 58.8275V59.0825C88.9116 59.6454 89.0391 60.1499 89.294 60.596C89.5595 61.0315 89.926 61.3714 90.3933 61.6157C90.8607 61.86 91.3971 61.9821 92.0025 61.9821C92.5017 61.9821 92.9531 61.8972 93.3567 61.7272C93.771 61.5573 94.1321 61.3024 94.4401 60.9625L95.2845 61.9503C94.9022 62.3964 94.4242 62.7363 93.8506 62.9699C93.2877 63.2036 92.6557 63.3204 91.9547 63.3204ZM100.372 63.3204C99.6708 63.3204 99.0016 63.2249 98.3643 63.0337C97.7377 62.8425 97.2438 62.6088 96.8826 62.3326L97.5199 61.1218C97.881 61.3661 98.3272 61.5732 98.8582 61.7432C99.3893 61.9131 99.931 61.9981 100.483 61.9981C101.195 61.9981 101.705 61.8972 102.013 61.6954C102.331 61.4935 102.491 61.2121 102.491 60.8509C102.491 60.5854 102.395 60.3783 102.204 60.2296C102.013 60.0809 101.758 59.9694 101.439 59.895C101.131 59.8207 100.786 59.7569 100.404 59.7038C100.021 59.6401 99.6389 59.5657 99.2565 59.4808C98.8742 59.3852 98.5237 59.2577 98.205 59.0984C97.8864 58.9284 97.6314 58.7001 97.4403 58.4133C97.2491 58.1159 97.1535 57.7229 97.1535 57.2343C97.1535 56.7245 97.2969 56.2784 97.5836 55.896C97.8704 55.5136 98.274 55.2215 98.7945 55.0197C99.3256 54.8073 99.9522 54.7011 100.675 54.7011C101.227 54.7011 101.784 54.7701 102.347 54.9082C102.921 55.0357 103.388 55.2215 103.749 55.4658L103.096 56.6767C102.714 56.4218 102.316 56.2465 101.901 56.1509C101.487 56.0553 101.073 56.0075 100.659 56.0075C99.9894 56.0075 99.4902 56.1191 99.1609 56.3421C98.8317 56.5545 98.667 56.8307 98.667 57.1706C98.667 57.4574 98.7626 57.6804 98.9538 57.8397C99.1556 57.9884 99.4105 58.1053 99.7186 58.1903C100.037 58.2752 100.388 58.3496 100.77 58.4133C101.152 58.4664 101.535 58.5408 101.917 58.6364C102.3 58.7213 102.645 58.8435 102.953 59.0028C103.271 59.1621 103.526 59.3852 103.718 59.672C103.919 59.9587 104.02 60.3411 104.02 60.8191C104.02 61.3289 103.872 61.7697 103.574 62.1415C103.277 62.5132 102.857 62.8053 102.316 63.0177C101.774 63.2195 101.126 63.3204 100.372 63.3204ZM105.932 63.2249V54.7807H107.461V63.2249H105.932ZM106.697 53.1556C106.399 53.1556 106.15 53.0601 105.948 52.8689C105.757 52.6777 105.661 52.444 105.661 52.1678C105.661 51.8811 105.757 51.6421 105.948 51.4509C106.15 51.2597 106.399 51.1641 106.697 51.1641C106.994 51.1641 107.238 51.2597 107.429 51.4509C107.631 51.6315 107.732 51.8598 107.732 52.136C107.732 52.4228 107.637 52.6671 107.445 52.8689C107.254 53.0601 107.005 53.1556 106.697 53.1556ZM114.078 66.4113C113.303 66.4113 112.548 66.2998 111.816 66.0767C111.093 65.8643 110.504 65.5563 110.047 65.1527L110.78 63.9737C111.173 64.3136 111.656 64.5791 112.23 64.7703C112.803 64.9721 113.403 65.073 114.03 65.073C115.029 65.073 115.761 64.8393 116.229 64.372C116.696 63.9046 116.93 63.193 116.93 62.2371V60.4526L117.089 58.7797L117.009 57.0909V54.7807H118.459V62.0777C118.459 63.5647 118.088 64.6588 117.344 65.3598C116.601 66.0608 115.512 66.4113 114.078 66.4113ZM113.887 62.8743C113.069 62.8743 112.336 62.7044 111.688 62.3645C111.051 62.014 110.541 61.5307 110.159 60.9147C109.787 60.2986 109.601 59.587 109.601 58.7797C109.601 57.9619 109.787 57.2502 110.159 56.6448C110.541 56.0288 111.051 55.5508 111.688 55.2109C112.336 54.871 113.069 54.7011 113.887 54.7011C114.609 54.7011 115.268 54.8498 115.862 55.1472C116.457 55.434 116.93 55.8801 117.28 56.4855C117.641 57.0909 117.822 57.8557 117.822 58.7797C117.822 59.6932 117.641 60.4526 117.28 61.0581C116.93 61.6635 116.457 62.1202 115.862 62.4282C115.268 62.7256 114.609 62.8743 113.887 62.8743ZM114.062 61.536C114.625 61.536 115.124 61.4192 115.56 61.1855C115.995 60.9518 116.335 60.6279 116.579 60.2137C116.834 59.7994 116.962 59.3214 116.962 58.7797C116.962 58.238 116.834 57.7601 116.579 57.3458C116.335 56.9316 115.995 56.613 115.56 56.3899C115.124 56.1562 114.625 56.0394 114.062 56.0394C113.499 56.0394 112.995 56.1562 112.548 56.3899C112.113 56.613 111.768 56.9316 111.513 57.3458C111.269 57.7601 111.146 58.238 111.146 58.7797C111.146 59.3214 111.269 59.7994 111.513 60.2137C111.768 60.6279 112.113 60.9518 112.548 61.1855C112.995 61.4192 113.499 61.536 114.062 61.536ZM125.891 54.7011C126.581 54.7011 127.186 54.8338 127.707 55.0994C128.238 55.3649 128.652 55.7685 128.95 56.3102C129.247 56.8519 129.396 57.537 129.396 58.3655V63.2249H127.866V58.5408C127.866 57.7229 127.664 57.1069 127.261 56.6926C126.868 56.2784 126.31 56.0713 125.588 56.0713C125.046 56.0713 124.574 56.1775 124.17 56.3899C123.766 56.6023 123.453 56.9157 123.23 57.3299C123.017 57.7441 122.911 58.2593 122.911 58.8753V63.2249H121.382V54.7807H122.848V57.0591L122.609 56.4536C122.885 55.9013 123.31 55.4711 123.883 55.1631C124.457 54.8551 125.126 54.7011 125.891 54.7011ZM139.978 63.3523C139.128 63.3523 138.316 63.2249 137.541 62.9699C136.765 62.7044 136.154 62.3645 135.708 61.9503L136.298 60.7076C136.723 61.0793 137.264 61.3873 137.923 61.6316C138.581 61.8759 139.267 61.9981 139.978 61.9981C140.626 61.9981 141.152 61.9237 141.556 61.775C141.959 61.6263 142.257 61.4245 142.448 61.1696C142.639 60.9041 142.734 60.6066 142.734 60.2774C142.734 59.895 142.607 59.587 142.352 59.3533C142.108 59.1196 141.784 58.9338 141.38 58.7957C140.987 58.647 140.552 58.5195 140.074 58.4133C139.596 58.3071 139.113 58.1849 138.624 58.0469C138.146 57.8982 137.705 57.7123 137.302 57.4892C136.909 57.2662 136.59 56.9688 136.346 56.597C136.101 56.2146 135.979 55.7261 135.979 55.1313C135.979 54.5577 136.128 54.0319 136.425 53.554C136.733 53.0654 137.201 52.6777 137.827 52.3909C138.465 52.0935 139.272 51.9448 140.249 51.9448C140.897 51.9448 141.54 52.0298 142.177 52.1997C142.814 52.3697 143.366 52.614 143.834 52.9326L143.308 54.2072C142.83 53.8885 142.326 53.6602 141.794 53.5221C141.263 53.3734 140.748 53.299 140.249 53.299C139.622 53.299 139.107 53.3787 138.704 53.538C138.3 53.6973 138.003 53.9098 137.811 54.1753C137.631 54.4409 137.541 54.7383 137.541 55.0675C137.541 55.4605 137.663 55.7739 137.907 56.0075C138.162 56.2412 138.486 56.4271 138.879 56.5652C139.283 56.7032 139.723 56.8307 140.201 56.9475C140.679 57.0537 141.157 57.1759 141.635 57.314C142.124 57.4521 142.565 57.6326 142.958 57.8557C143.361 58.0787 143.685 58.3761 143.929 58.7479C144.174 59.1196 144.296 59.5976 144.296 60.1818C144.296 60.7447 144.142 61.2705 143.834 61.7591C143.526 62.2371 143.048 62.6247 142.4 62.9221C141.763 63.2089 140.955 63.3523 139.978 63.3523ZM149.3 63.3204C148.45 63.3204 147.792 63.0921 147.324 62.6354C146.857 62.1786 146.623 61.5254 146.623 60.6757V52.9326H148.153V60.612C148.153 61.0687 148.264 61.4192 148.488 61.6635C148.721 61.9078 149.05 62.0299 149.475 62.0299C149.953 62.0299 150.352 61.8972 150.67 61.6316L151.148 62.731C150.915 62.9328 150.633 63.0815 150.304 63.1771C149.985 63.2727 149.651 63.3204 149.3 63.3204ZM145.19 56.0394V54.7807H150.575V56.0394H145.19ZM156.55 63.3204C155.828 63.3204 155.191 63.1877 154.638 62.9221C154.097 62.6566 153.672 62.253 153.364 61.7113C153.066 61.159 152.918 60.4686 152.918 59.6401V54.7807H154.447V59.4648C154.447 60.2933 154.644 60.9147 155.037 61.3289C155.44 61.7432 156.003 61.9503 156.726 61.9503C157.257 61.9503 157.719 61.8441 158.112 61.6316C158.505 61.4086 158.807 61.0899 159.02 60.6757C159.232 60.2508 159.338 59.741 159.338 59.1462V54.7807H160.868V63.2249H159.418V60.9465L159.657 61.552C159.381 62.1149 158.967 62.5504 158.414 62.8584C157.862 63.1664 157.241 63.3204 156.55 63.3204ZM167.269 63.3204C166.451 63.3204 165.718 63.1399 165.07 62.7787C164.433 62.4176 163.928 61.9131 163.557 61.2652C163.185 60.6173 162.999 59.8631 162.999 59.0028C162.999 58.1425 163.185 57.3936 163.557 56.7563C163.928 56.1084 164.433 55.6039 165.07 55.2428C165.718 54.8816 166.451 54.7011 167.269 54.7011C167.98 54.7011 168.623 54.8604 169.197 55.179C169.77 55.4977 170.227 55.9757 170.567 56.613C170.917 57.2502 171.093 58.0469 171.093 59.0028C171.093 59.9587 170.923 60.7553 170.583 61.3926C170.253 62.0299 169.802 62.5132 169.229 62.8425C168.655 63.1611 168.002 63.3204 167.269 63.3204ZM167.396 61.9821C167.927 61.9821 168.405 61.86 168.83 61.6157C169.266 61.3714 169.606 61.0262 169.85 60.5801C170.105 60.1234 170.232 59.5976 170.232 59.0028C170.232 58.3974 170.105 57.8769 169.85 57.4414C169.606 56.9953 169.266 56.6501 168.83 56.4058C168.405 56.1615 167.927 56.0394 167.396 56.0394C166.855 56.0394 166.371 56.1615 165.946 56.4058C165.522 56.6501 165.182 56.9953 164.927 57.4414C164.672 57.8769 164.544 58.3974 164.544 59.0028C164.544 59.5976 164.672 60.1234 164.927 60.5801C165.182 61.0262 165.522 61.3714 165.946 61.6157C166.371 61.86 166.855 61.9821 167.396 61.9821ZM170.28 63.2249V60.9465L170.376 58.9869L170.216 57.0272V51.4031H171.746V63.2249H170.28ZM174.64 63.2249V54.7807H176.169V63.2249H174.64ZM175.405 53.1556C175.107 53.1556 174.858 53.0601 174.656 52.8689C174.465 52.6777 174.369 52.444 174.369 52.1678C174.369 51.8811 174.465 51.6421 174.656 51.4509C174.858 51.2597 175.107 51.1641 175.405 51.1641C175.702 51.1641 175.946 51.2597 176.137 51.4509C176.339 51.6315 176.44 51.8598 176.44 52.136C176.44 52.4228 176.345 52.6671 176.153 52.8689C175.962 53.0601 175.713 53.1556 175.405 53.1556ZM182.706 63.3204C181.857 63.3204 181.102 63.1346 180.444 62.7628C179.785 62.3911 179.265 61.8812 178.882 61.2333C178.5 60.5748 178.309 59.8313 178.309 59.0028C178.309 58.1637 178.5 57.4202 178.882 56.7723C179.265 56.1244 179.785 55.6198 180.444 55.2587C181.102 54.887 181.857 54.7011 182.706 54.7011C183.545 54.7011 184.294 54.887 184.953 55.2587C185.622 55.6198 186.142 56.1244 186.514 56.7723C186.896 57.4096 187.088 58.1531 187.088 59.0028C187.088 59.8419 186.896 60.5854 186.514 61.2333C186.142 61.8812 185.622 62.3911 184.953 62.7628C184.294 63.1346 183.545 63.3204 182.706 63.3204ZM182.706 61.9821C183.248 61.9821 183.731 61.86 184.156 61.6157C184.592 61.3714 184.931 61.0262 185.176 60.5801C185.42 60.1234 185.542 59.5976 185.542 59.0028C185.542 58.3974 185.42 57.8769 185.176 57.4414C184.931 56.9953 184.592 56.6501 184.156 56.4058C183.731 56.1615 183.248 56.0394 182.706 56.0394C182.165 56.0394 181.681 56.1615 181.256 56.4058C180.832 56.6501 180.492 56.9953 180.237 57.4414C179.982 57.8769 179.854 58.3974 179.854 59.0028C179.854 59.5976 179.982 60.1234 180.237 60.5801C180.492 61.0262 180.832 61.3714 181.256 61.6157C181.681 61.86 182.165 61.9821 182.706 61.9821ZM191.625 63.3204C190.924 63.3204 190.254 63.2249 189.617 63.0337C188.99 62.8425 188.497 62.6088 188.135 62.3326L188.773 61.1218C189.134 61.3661 189.58 61.5732 190.111 61.7432C190.642 61.9131 191.184 61.9981 191.736 61.9981C192.448 61.9981 192.958 61.8972 193.266 61.6954C193.584 61.4935 193.744 61.2121 193.744 60.8509C193.744 60.5854 193.648 60.3783 193.457 60.2296C193.266 60.0809 193.011 59.9694 192.692 59.895C192.384 59.8207 192.039 59.7569 191.656 59.7038C191.274 59.6401 190.892 59.5657 190.509 59.4808C190.127 59.3852 189.776 59.2577 189.458 59.0984C189.139 58.9284 188.884 58.7001 188.693 58.4133C188.502 58.1159 188.406 57.7229 188.406 57.2343C188.406 56.7245 188.55 56.2784 188.836 55.896C189.123 55.5136 189.527 55.2215 190.047 55.0197C190.578 54.8073 191.205 54.7011 191.927 54.7011C192.48 54.7011 193.037 54.7701 193.6 54.9082C194.174 55.0357 194.641 55.2215 195.002 55.4658L194.349 56.6767C193.967 56.4218 193.568 56.2465 193.154 56.1509C192.74 56.0553 192.326 56.0075 191.911 56.0075C191.242 56.0075 190.743 56.1191 190.414 56.3421C190.084 56.5545 189.92 56.8307 189.92 57.1706C189.92 57.4574 190.015 57.6804 190.207 57.8397C190.408 57.9884 190.663 58.1053 190.971 58.1903C191.29 58.2752 191.641 58.3496 192.023 58.4133C192.405 58.4664 192.788 58.5408 193.17 58.6364C193.552 58.7213 193.898 58.8435 194.206 59.0028C194.524 59.1621 194.779 59.3852 194.97 59.672C195.172 59.9587 195.273 60.3411 195.273 60.8191C195.273 61.3289 195.124 61.7697 194.827 62.1415C194.53 62.5132 194.11 62.8053 193.568 63.0177C193.027 63.2195 192.379 63.3204 191.625 63.3204Z" fill="white"/>
</svg>
