<svg width="219" height="68" viewBox="0 0 219 68" fill="none" xmlns="http://www.w3.org/2000/svg">
<path d="M0.40625 29.5118C0.40625 18.5254 9.31248 9.61914 20.2989 9.61914H24.41V37.2478C24.41 48.2342 15.5038 57.1404 4.51739 57.1404H0.40625V29.5118Z" fill="#6C3FEA"/>
<path d="M29.9806 18.8338C29.9806 13.7447 34.1062 9.61914 39.1953 9.61914C44.2845 9.61914 48.41 13.7447 48.41 18.8338C48.41 23.923 44.2845 28.0485 39.1953 28.0485C34.1062 28.0485 29.9806 23.923 29.9806 18.8338Z" fill="#FDAE38"/>
<path d="M53.9806 45.6191C53.9806 52.2466 48.608 57.6191 41.9806 57.6191C35.3532 57.6191 29.9806 52.2466 29.9806 45.6191V34.5476C29.9806 34.0348 30.3963 33.6191 30.9091 33.6191H41.9806C48.608 33.6191 53.9806 38.9917 53.9806 45.6191Z" fill="#3EEDF9"/>
<path d="M99.7749 12.5539H107.518V46.0117H99.7749V12.5539ZM84.5755 46.0117H76.8324V12.5539H84.5755V46.0117ZM100.348 32.294H84.0019V25.7459H100.348V32.294ZM123.368 46.3941C121.233 46.3941 119.321 45.9799 117.633 45.1514C115.976 44.3229 114.685 43.0642 113.761 41.3754C112.837 39.6547 112.375 37.472 112.375 34.8273V20.297H119.831V33.7279C119.831 35.8629 120.277 37.4401 121.17 38.4598C122.094 39.4476 123.384 39.9415 125.041 39.9415C126.188 39.9415 127.208 39.7025 128.1 39.2246C128.992 38.7147 129.693 37.95 130.203 36.9303C130.713 35.8788 130.968 34.5723 130.968 33.011V20.297H138.424V46.0117H131.35V38.9378L132.641 40.993C131.78 42.7775 130.506 44.1317 128.817 45.0558C127.16 45.948 125.344 46.3941 123.368 46.3941ZM158.572 19.9146C160.611 19.9146 162.427 20.3289 164.021 21.1574C165.646 21.954 166.92 23.1967 167.844 24.8855C168.768 26.5425 169.23 28.6774 169.23 31.2903V46.0117H161.774V32.4374C161.774 30.3662 161.312 28.8367 160.388 27.8489C159.496 26.8611 158.221 26.3672 156.564 26.3672C155.385 26.3672 154.318 26.6221 153.362 27.132C152.438 27.6099 151.705 28.3587 151.163 29.3784C150.653 30.3981 150.398 31.7045 150.398 33.2978V46.0117H142.942V20.297H150.064V27.4187L148.726 25.2679C149.65 23.5472 150.972 22.2248 152.693 21.3007C154.413 20.3767 156.373 19.9146 158.572 19.9146ZM189.372 46.0117V40.993L188.894 39.8937V30.9079C188.894 29.3147 188.4 28.072 187.413 27.1798C186.457 26.2875 184.975 25.8414 182.968 25.8414C181.597 25.8414 180.243 26.0645 178.905 26.5106C177.598 26.9248 176.483 27.4984 175.559 28.2313L172.882 23.0214C174.284 22.0336 175.973 21.2689 177.949 20.7272C179.924 20.1855 181.932 19.9146 183.971 19.9146C187.891 19.9146 190.934 20.8387 193.1 22.6869C195.267 24.535 196.351 27.4187 196.351 31.3381V46.0117H189.372ZM181.534 46.3941C179.526 46.3941 177.805 46.0595 176.372 45.3904C174.938 44.6893 173.838 43.7493 173.074 42.5703C172.309 41.3914 171.926 40.069 171.926 38.6032C171.926 37.0737 172.293 35.7354 173.026 34.5883C173.791 33.4411 174.985 32.5489 176.611 31.9116C178.236 31.2425 180.355 30.9079 182.968 30.9079H189.802V35.2574H183.78C182.028 35.2574 180.817 35.5442 180.148 36.1178C179.51 36.6913 179.192 37.4083 179.192 38.2686C179.192 39.2246 179.558 39.9893 180.291 40.5629C181.056 41.1046 182.091 41.3754 183.398 41.3754C184.64 41.3754 185.756 41.0886 186.743 40.5151C187.731 39.9097 188.448 39.0334 188.894 37.8863L190.041 41.3276C189.5 42.9846 188.512 44.2432 187.078 45.1036C185.644 45.9639 183.796 46.3941 181.534 46.3941ZM200.709 46.0117V20.297H207.831V27.5621L206.827 25.4591C207.592 23.6428 208.819 22.2726 210.507 21.3485C212.196 20.3926 214.252 19.9146 216.673 19.9146V26.7974C216.355 26.7655 216.068 26.7496 215.813 26.7496C215.558 26.7177 215.287 26.7018 215 26.7018C212.961 26.7018 211.304 27.2913 210.03 28.4703C208.787 29.6174 208.165 31.4177 208.165 33.8713V46.0117H200.709Z" fill="black"/>
<path opacity="0.6" d="M74.5381 63.2247V52.0721H79.2381C80.4278 52.0721 81.474 52.3058 82.3768 52.7732C83.2903 53.2405 83.9966 53.8937 84.4958 54.7328C85.0056 55.5719 85.2606 56.5438 85.2606 57.6484C85.2606 58.7531 85.0056 59.7249 84.4958 60.564C83.9966 61.4031 83.2903 62.0564 82.3768 62.5237C81.474 62.9911 80.4278 63.2247 79.2381 63.2247H74.5381ZM76.1314 61.8386H79.1426C80.0666 61.8386 80.8632 61.6634 81.5324 61.3129C82.2122 60.9623 82.7379 60.4738 83.1097 59.8471C83.4814 59.2098 83.6673 58.4769 83.6673 57.6484C83.6673 56.8093 83.4814 56.0764 83.1097 55.4498C82.7379 54.8231 82.2122 54.3345 81.5324 53.984C80.8632 53.6335 80.0666 53.4582 79.1426 53.4582H76.1314V61.8386ZM91.2379 63.3203C90.3351 63.3203 89.5385 63.1344 88.8481 62.7627C88.1683 62.3909 87.6372 61.8811 87.2548 61.2332C86.8831 60.5853 86.6972 59.8418 86.6972 59.0027C86.6972 58.1636 86.8778 57.4201 87.2389 56.7722C87.6106 56.1242 88.1152 55.6197 88.7525 55.2586C89.4004 54.8868 90.1279 54.701 90.9352 54.701C91.753 54.701 92.4753 54.8815 93.102 55.2427C93.7286 55.6038 94.2172 56.1136 94.5677 56.7722C94.9289 57.4201 95.1094 58.1795 95.1094 59.0505C95.1094 59.1142 95.1041 59.1886 95.0935 59.2735C95.0935 59.3585 95.0882 59.4382 95.0776 59.5125H87.8921V58.4132H94.281L93.6596 58.7956C93.6702 58.2539 93.5587 57.7706 93.325 57.3457C93.0914 56.9209 92.7674 56.5916 92.3532 56.3579C91.9495 56.1136 91.4769 55.9915 90.9352 55.9915C90.4041 55.9915 89.9315 56.1136 89.5172 56.3579C89.103 56.5916 88.779 56.9262 88.5453 57.3616C88.3117 57.7865 88.1948 58.2751 88.1948 58.8274V59.0823C88.1948 59.6453 88.3223 60.1498 88.5772 60.5959C88.8427 61.0314 89.2092 61.3713 89.6765 61.6156C90.1439 61.8599 90.6803 61.982 91.2857 61.982C91.7849 61.982 92.2363 61.897 92.6399 61.7271C93.0542 61.5572 93.4153 61.3022 93.7233 60.9623L94.5677 61.9501C94.1854 62.3963 93.7074 62.7361 93.1338 62.9698C92.5709 63.2035 91.9389 63.3203 91.2379 63.3203ZM99.655 63.3203C98.954 63.3203 98.2848 63.2247 97.6475 63.0335C97.0209 62.8424 96.527 62.6087 96.1658 62.3325L96.8031 61.1217C97.1643 61.366 97.6104 61.5731 98.1414 61.743C98.6725 61.913 99.2142 61.9979 99.7665 61.9979C100.478 61.9979 100.988 61.897 101.296 61.6952C101.615 61.4934 101.774 61.212 101.774 60.8508C101.774 60.5853 101.678 60.3782 101.487 60.2295C101.296 60.0808 101.041 59.9692 100.722 59.8949C100.414 59.8205 100.069 59.7568 99.6869 59.7037C99.3045 59.64 98.9221 59.5656 98.5397 59.4806C98.1574 59.3851 97.8069 59.2576 97.4882 59.0983C97.1696 58.9283 96.9146 58.7 96.7235 58.4132C96.5323 58.1158 96.4367 57.7228 96.4367 57.2342C96.4367 56.7244 96.5801 56.2783 96.8668 55.8959C97.1536 55.5135 97.5572 55.2214 98.0777 55.0196C98.6088 54.8072 99.2354 54.701 99.9577 54.701C100.51 54.701 101.068 54.77 101.631 54.9081C102.204 55.0355 102.672 55.2214 103.033 55.4657L102.379 56.6766C101.997 56.4216 101.599 56.2464 101.184 56.1508C100.77 56.0552 100.356 56.0074 99.9418 56.0074C99.2726 56.0074 98.7734 56.1189 98.4441 56.342C98.1149 56.5544 97.9502 56.8306 97.9502 57.1705C97.9502 57.4572 98.0458 57.6803 98.237 57.8396C98.4388 57.9883 98.6938 58.1052 99.0018 58.1901C99.3204 58.2751 99.6709 58.3495 100.053 58.4132C100.436 58.4663 100.818 58.5406 101.2 58.6362C101.583 58.7212 101.928 58.8434 102.236 59.0027C102.555 59.162 102.81 59.3851 103.001 59.6718C103.203 59.9586 103.303 60.341 103.303 60.819C103.303 61.3288 103.155 61.7696 102.857 62.1413C102.56 62.5131 102.14 62.8052 101.599 63.0176C101.057 63.2194 100.409 63.3203 99.655 63.3203ZM105.215 63.2247V54.7806H106.744V63.2247H105.215ZM105.98 53.1555C105.682 53.1555 105.433 53.0599 105.231 52.8687C105.04 52.6776 104.944 52.4439 104.944 52.1677C104.944 51.8809 105.04 51.642 105.231 51.4508C105.433 51.2596 105.682 51.164 105.98 51.164C106.277 51.164 106.521 51.2596 106.713 51.4508C106.914 51.6313 107.015 51.8597 107.015 52.1359C107.015 52.4226 106.92 52.6669 106.729 52.8687C106.537 53.0599 106.288 53.1555 105.98 53.1555ZM113.361 66.4112C112.586 66.4112 111.832 66.2997 111.099 66.0766C110.376 65.8642 109.787 65.5562 109.33 65.1525L110.063 63.9735C110.456 64.3134 110.939 64.579 111.513 64.7702C112.087 64.972 112.687 65.0729 113.313 65.0729C114.312 65.0729 115.045 64.8392 115.512 64.3719C115.979 63.9045 116.213 63.1929 116.213 62.2369V60.4525L116.372 58.7796L116.293 57.0908V54.7806H117.742V62.0776C117.742 63.5646 117.371 64.6586 116.627 65.3597C115.884 66.0607 114.795 66.4112 113.361 66.4112ZM113.17 62.8742C112.352 62.8742 111.619 62.7043 110.971 62.3644C110.334 62.0139 109.824 61.5306 109.442 60.9145C109.07 60.2985 108.884 59.5869 108.884 58.7796C108.884 57.9618 109.07 57.2501 109.442 56.6447C109.824 56.0286 110.334 55.5507 110.971 55.2108C111.619 54.8709 112.352 54.701 113.17 54.701C113.892 54.701 114.551 54.8497 115.146 55.1471C115.74 55.4338 116.213 55.8799 116.564 56.4854C116.925 57.0908 117.105 57.8556 117.105 58.7796C117.105 59.6931 116.925 60.4525 116.564 61.0579C116.213 61.6634 115.74 62.1201 115.146 62.4281C114.551 62.7255 113.892 62.8742 113.17 62.8742ZM113.345 61.5359C113.908 61.5359 114.407 61.4191 114.843 61.1854C115.278 60.9517 115.618 60.6278 115.862 60.2135C116.117 59.7993 116.245 59.3213 116.245 58.7796C116.245 58.2379 116.117 57.76 115.862 57.3457C115.618 56.9315 115.278 56.6128 114.843 56.3898C114.407 56.1561 113.908 56.0393 113.345 56.0393C112.782 56.0393 112.278 56.1561 111.832 56.3898C111.396 56.6128 111.051 56.9315 110.796 57.3457C110.552 57.76 110.43 58.2379 110.43 58.7796C110.43 59.3213 110.552 59.7993 110.796 60.2135C111.051 60.6278 111.396 60.9517 111.832 61.1854C112.278 61.4191 112.782 61.5359 113.345 61.5359ZM125.174 54.701C125.864 54.701 126.47 54.8337 126.99 55.0993C127.521 55.3648 127.935 55.7684 128.233 56.3101C128.53 56.8518 128.679 57.5369 128.679 58.3654V63.2247H127.149V58.5406C127.149 57.7228 126.948 57.1067 126.544 56.6925C126.151 56.2783 125.593 56.0711 124.871 56.0711C124.329 56.0711 123.857 56.1774 123.453 56.3898C123.049 56.6022 122.736 56.9155 122.513 57.3298C122.301 57.744 122.194 58.2592 122.194 58.8752V63.2247H120.665V54.7806H122.131V57.0589L121.892 56.4535C122.168 55.9012 122.593 55.471 123.166 55.163C123.74 54.855 124.409 54.701 125.174 54.701ZM139.261 63.3522C138.412 63.3522 137.599 63.2247 136.824 62.9698C136.048 62.7043 135.438 62.3644 134.992 61.9501L135.581 60.7074C136.006 61.0792 136.548 61.3872 137.206 61.6315C137.865 61.8758 138.55 61.9979 139.261 61.9979C139.909 61.9979 140.435 61.9236 140.839 61.7749C141.242 61.6262 141.54 61.4244 141.731 61.1695C141.922 60.9039 142.018 60.6065 142.018 60.2773C142.018 59.8949 141.89 59.5869 141.635 59.3532C141.391 59.1195 141.067 58.9336 140.663 58.7956C140.27 58.6469 139.835 58.5194 139.357 58.4132C138.879 58.307 138.396 58.1848 137.907 58.0467C137.429 57.898 136.988 57.7122 136.585 57.4891C136.192 57.2661 135.873 56.9687 135.629 56.5969C135.385 56.2145 135.262 55.7259 135.262 55.1311C135.262 54.5576 135.411 54.0318 135.709 53.5538C136.017 53.0652 136.484 52.6776 137.111 52.3908C137.748 52.0934 138.555 51.9447 139.532 51.9447C140.18 51.9447 140.823 52.0296 141.46 52.1996C142.097 52.3695 142.65 52.6138 143.117 52.9325L142.591 54.2071C142.113 53.8884 141.609 53.66 141.078 53.522C140.547 53.3733 140.031 53.2989 139.532 53.2989C138.906 53.2989 138.39 53.3786 137.987 53.5379C137.583 53.6972 137.286 53.9097 137.095 54.1752C136.914 54.4407 136.824 54.7381 136.824 55.0674C136.824 55.4604 136.946 55.7737 137.19 56.0074C137.445 56.2411 137.769 56.427 138.162 56.565C138.566 56.7031 139.007 56.8306 139.484 56.9474C139.962 57.0536 140.44 57.1758 140.918 57.3139C141.407 57.4519 141.848 57.6325 142.241 57.8556C142.644 58.0786 142.968 58.376 143.213 58.7478C143.457 59.1195 143.579 59.5975 143.579 60.1817C143.579 60.7446 143.425 61.2704 143.117 61.759C142.809 62.2369 142.331 62.6246 141.683 62.922C141.046 63.2088 140.239 63.3522 139.261 63.3522ZM148.583 63.3203C147.734 63.3203 147.075 63.092 146.608 62.6352C146.14 62.1785 145.907 61.5253 145.907 60.6756V52.9325H147.436V60.6118C147.436 61.0686 147.548 61.4191 147.771 61.6634C148.004 61.9077 148.334 62.0298 148.759 62.0298C149.237 62.0298 149.635 61.897 149.953 61.6315L150.431 62.7308C150.198 62.9326 149.916 63.0813 149.587 63.1769C149.268 63.2725 148.934 63.3203 148.583 63.3203ZM144.473 56.0393V54.7806H149.858V56.0393H144.473ZM155.833 63.3203C155.111 63.3203 154.474 63.1876 153.922 62.922C153.38 62.6565 152.955 62.2529 152.647 61.7112C152.35 61.1588 152.201 60.4684 152.201 59.64V54.7806H153.73V59.4647C153.73 60.2932 153.927 60.9145 154.32 61.3288C154.724 61.743 155.286 61.9501 156.009 61.9501C156.54 61.9501 157.002 61.8439 157.395 61.6315C157.788 61.4085 158.091 61.0898 158.303 60.6756C158.515 60.2507 158.622 59.7409 158.622 59.1461V54.7806H160.151V63.2247H158.701V60.9464L158.94 61.5518C158.664 62.1148 158.25 62.5503 157.698 62.8583C157.145 63.1663 156.524 63.3203 155.833 63.3203ZM166.552 63.3203C165.734 63.3203 165.001 63.1398 164.353 62.7786C163.716 62.4175 163.212 61.913 162.84 61.2651C162.468 60.6171 162.282 59.863 162.282 59.0027C162.282 58.1423 162.468 57.3935 162.84 56.7562C163.212 56.1083 163.716 55.6038 164.353 55.2427C165.001 54.8815 165.734 54.701 166.552 54.701C167.264 54.701 167.906 54.8603 168.48 55.1789C169.053 55.4976 169.51 55.9755 169.85 56.6128C170.201 57.2501 170.376 58.0467 170.376 59.0027C170.376 59.9586 170.206 60.7552 169.866 61.3925C169.537 62.0298 169.085 62.5131 168.512 62.8424C167.938 63.161 167.285 63.3203 166.552 63.3203ZM166.68 61.982C167.211 61.982 167.689 61.8599 168.113 61.6156C168.549 61.3713 168.889 61.0261 169.133 60.58C169.388 60.1232 169.515 59.5975 169.515 59.0027C169.515 58.3972 169.388 57.8768 169.133 57.4413C168.889 56.9952 168.549 56.65 168.113 56.4057C167.689 56.1614 167.211 56.0393 166.68 56.0393C166.138 56.0393 165.655 56.1614 165.23 56.4057C164.805 56.65 164.465 56.9952 164.21 57.4413C163.955 57.8768 163.828 58.3972 163.828 59.0027C163.828 59.5975 163.955 60.1232 164.21 60.58C164.465 61.0261 164.805 61.3713 165.23 61.6156C165.655 61.8599 166.138 61.982 166.68 61.982ZM169.563 63.2247V60.9464L169.659 58.9867L169.5 57.0271V51.403H171.029V63.2247H169.563ZM173.923 63.2247V54.7806H175.452V63.2247H173.923ZM174.688 53.1555C174.39 53.1555 174.141 53.0599 173.939 52.8687C173.748 52.6776 173.652 52.4439 173.652 52.1677C173.652 51.8809 173.748 51.642 173.939 51.4508C174.141 51.2596 174.39 51.164 174.688 51.164C174.985 51.164 175.229 51.2596 175.421 51.4508C175.622 51.6313 175.723 51.8597 175.723 52.1359C175.723 52.4226 175.628 52.6669 175.437 52.8687C175.245 53.0599 174.996 53.1555 174.688 53.1555ZM181.989 63.3203C181.14 63.3203 180.386 63.1344 179.727 62.7627C179.069 62.3909 178.548 61.8811 178.166 61.2332C177.783 60.5747 177.592 59.8312 177.592 59.0027C177.592 58.1636 177.783 57.4201 178.166 56.7722C178.548 56.1242 179.069 55.6197 179.727 55.2586C180.386 54.8868 181.14 54.701 181.989 54.701C182.829 54.701 183.577 54.8868 184.236 55.2586C184.905 55.6197 185.426 56.1242 185.797 56.7722C186.18 57.4094 186.371 58.153 186.371 59.0027C186.371 59.8418 186.18 60.5853 185.797 61.2332C185.426 61.8811 184.905 62.3909 184.236 62.7627C183.577 63.1344 182.829 63.3203 181.989 63.3203ZM181.989 61.982C182.531 61.982 183.014 61.8599 183.439 61.6156C183.875 61.3713 184.215 61.0261 184.459 60.58C184.703 60.1232 184.825 59.5975 184.825 59.0027C184.825 58.3972 184.703 57.8768 184.459 57.4413C184.215 56.9952 183.875 56.65 183.439 56.4057C183.014 56.1614 182.531 56.0393 181.989 56.0393C181.448 56.0393 180.964 56.1614 180.54 56.4057C180.115 56.65 179.775 56.9952 179.52 57.4413C179.265 57.8768 179.138 58.3972 179.138 59.0027C179.138 59.5975 179.265 60.1232 179.52 60.58C179.775 61.0261 180.115 61.3713 180.54 61.6156C180.964 61.8599 181.448 61.982 181.989 61.982ZM190.908 63.3203C190.207 63.3203 189.538 63.2247 188.9 63.0335C188.274 62.8424 187.78 62.6087 187.419 62.3325L188.056 61.1217C188.417 61.366 188.863 61.5731 189.394 61.743C189.925 61.913 190.467 61.9979 191.019 61.9979C191.731 61.9979 192.241 61.897 192.549 61.6952C192.867 61.4934 193.027 61.212 193.027 60.8508C193.027 60.5853 192.931 60.3782 192.74 60.2295C192.549 60.0808 192.294 59.9692 191.975 59.8949C191.667 59.8205 191.322 59.7568 190.94 59.7037C190.557 59.64 190.175 59.5656 189.793 59.4806C189.41 59.3851 189.06 59.2576 188.741 59.0983C188.422 58.9283 188.167 58.7 187.976 58.4132C187.785 58.1158 187.689 57.7228 187.689 57.2342C187.689 56.7244 187.833 56.2783 188.12 55.8959C188.406 55.5135 188.81 55.2214 189.33 55.0196C189.862 54.8072 190.488 54.701 191.21 54.701C191.763 54.701 192.32 54.77 192.883 54.9081C193.457 55.0355 193.924 55.2214 194.285 55.4657L193.632 56.6766C193.25 56.4216 192.852 56.2464 192.437 56.1508C192.023 56.0552 191.609 56.0074 191.195 56.0074C190.525 56.0074 190.026 56.1189 189.697 56.342C189.368 56.5544 189.203 56.8306 189.203 57.1705C189.203 57.4572 189.299 57.6803 189.49 57.8396C189.692 57.9883 189.947 58.1052 190.255 58.1901C190.573 58.2751 190.924 58.3495 191.306 58.4132C191.688 58.4663 192.071 58.5406 192.453 58.6362C192.836 58.7212 193.181 58.8434 193.489 59.0027C193.807 59.162 194.062 59.3851 194.254 59.6718C194.455 59.9586 194.556 60.341 194.556 60.819C194.556 61.3288 194.408 61.7696 194.11 62.1413C193.813 62.5131 193.393 62.8052 192.852 63.0176C192.31 63.2194 191.662 63.3203 190.908 63.3203Z" fill="black"/>
</svg>
