<svg width="150" height="150" viewBox="0 0 150 150" fill="none" xmlns="http://www.w3.org/2000/svg">
<rect width="150" height="150" rx="75" fill="white"/>
<path d="M56.9298 41.4114C56.9298 34.0002 62.9378 27.9922 70.349 27.9922H73.1223V46.63C73.1223 54.0412 67.1144 60.0492 59.7031 60.0492H56.9298V41.4114Z" fill="#6C3FEA"/>
<path d="M76.8802 34.2083C76.8802 30.7752 79.6632 27.9922 83.0963 27.9922C86.5293 27.9922 89.3123 30.7752 89.3123 34.2083C89.3123 37.6413 86.5293 40.4244 83.0963 40.4244C79.6632 40.4244 76.8802 37.6413 76.8802 34.2083Z" fill="#FDAE38"/>
<path d="M93.0702 52.2772C93.0702 56.7479 89.4459 60.3722 84.9752 60.3722C80.5044 60.3722 76.8802 56.7479 76.8802 52.2772V44.8085C76.8802 44.4626 77.1606 44.1822 77.5065 44.1822H84.9752C89.4459 44.1822 93.0702 47.8064 93.0702 52.2772Z" fill="#3EEDF9"/>
<path d="M41.3962 76.3432H47.1043V101.008H41.3962V76.3432ZM30.1914 101.008H24.4833V76.3432H30.1914V101.008ZM41.819 90.8953H29.7686V86.0681H41.819V90.8953ZM58.7889 101.29C57.2151 101.29 55.8057 100.984 54.5607 100.374C53.3392 99.7628 52.3878 98.835 51.7066 97.59C51.0254 96.3215 50.6848 94.7125 50.6848 92.7628V82.0513H56.1815V91.9524C56.1815 93.5262 56.5104 94.689 57.1681 95.4406C57.8493 96.1688 58.8007 96.5329 60.0221 96.5329C60.8678 96.5329 61.6195 96.3568 62.2772 96.0044C62.9349 95.6286 63.4517 95.0648 63.8275 94.3131C64.2034 93.5379 64.3913 92.5748 64.3913 91.4238V82.0513H69.888V101.008H64.6732V95.793L65.6245 97.3081C64.9903 98.6236 64.0507 99.6219 62.8057 100.303C61.5842 100.961 60.2453 101.29 58.7889 101.29ZM84.7405 81.7694C86.2438 81.7694 87.5828 82.0748 88.7573 82.6855C89.9553 83.2727 90.8949 84.1889 91.5761 85.4338C92.2573 86.6553 92.5979 88.2292 92.5979 90.1554V101.008H87.1012V91.001C87.1012 89.4741 86.7606 88.3466 86.0794 87.6184C85.4217 86.8902 84.4821 86.5261 83.2606 86.5261C82.3915 86.5261 81.6045 86.7141 80.8998 87.0899C80.2186 87.4423 79.6783 87.9943 79.279 88.746C78.9032 89.4976 78.7153 90.4607 78.7153 91.6352V101.008H73.2186V82.0513H78.4686V87.3013L77.482 85.7157C78.1632 84.4473 79.1381 83.4724 80.4065 82.7912C81.675 82.11 83.1197 81.7694 84.7405 81.7694ZM107.446 101.008V97.3081L107.094 96.4977V89.8735C107.094 88.699 106.73 87.7829 106.002 87.1251C105.297 86.4674 104.205 86.1385 102.725 86.1385C101.715 86.1385 100.716 86.303 99.7298 86.6318C98.7667 86.9372 97.9445 87.36 97.2633 87.9003L95.2901 84.0597C96.3237 83.3315 97.5687 82.7677 99.025 82.3684C100.481 81.969 101.961 81.7694 103.465 81.7694C106.354 81.7694 108.597 82.4506 110.195 83.813C111.792 85.1755 112.591 87.3013 112.591 90.1906V101.008H107.446ZM101.668 101.29C100.188 101.29 98.9193 101.043 97.8623 100.55C96.8052 100.033 95.9948 99.34 95.4311 98.4709C94.8673 97.6017 94.5854 96.6269 94.5854 95.5464C94.5854 94.4188 94.8555 93.4322 95.3958 92.5866C95.9596 91.7409 96.8405 91.0832 98.0385 90.6134C99.2365 90.1201 100.799 89.8735 102.725 89.8735H107.763V93.0799H103.324C102.032 93.0799 101.139 93.2913 100.646 93.7141C100.176 94.1369 99.9412 94.6655 99.9412 95.2997C99.9412 96.0044 100.211 96.5682 100.752 96.991C101.315 97.3903 102.079 97.59 103.042 97.59C103.958 97.59 104.78 97.3786 105.508 96.9558C106.237 96.5094 106.765 95.8635 107.094 95.0178L107.94 97.5548C107.54 98.7762 106.812 99.7041 105.755 100.338C104.698 100.973 103.335 101.29 101.668 101.29ZM115.804 101.008V82.0513H121.054V87.407L120.314 85.8567C120.878 84.5177 121.782 83.5077 123.027 82.8264C124.272 82.1217 125.787 81.7694 127.572 81.7694V86.8433C127.337 86.8198 127.126 86.808 126.938 86.808C126.75 86.7845 126.55 86.7728 126.339 86.7728C124.836 86.7728 123.614 87.2074 122.674 88.0765C121.758 88.9221 121.3 90.2493 121.3 92.0581V101.008H115.804Z" fill="black"/>
<path opacity="0.5" d="M48.9698 119.008V110.608H52.6418C53.5538 110.608 54.3538 110.784 55.0418 111.136C55.7298 111.488 56.2658 111.976 56.6498 112.6C57.0338 113.224 57.2258 113.96 57.2258 114.808C57.2258 115.648 57.0338 116.384 56.6498 117.016C56.2658 117.64 55.7298 118.128 55.0418 118.48C54.3538 118.832 53.5538 119.008 52.6418 119.008H48.9698ZM50.5298 117.688H52.5698C53.2018 117.688 53.7458 117.568 54.2018 117.328C54.6658 117.088 55.0218 116.752 55.2698 116.32C55.5258 115.888 55.6538 115.384 55.6538 114.808C55.6538 114.224 55.5258 113.72 55.2698 113.296C55.0218 112.864 54.6658 112.528 54.2018 112.288C53.7458 112.048 53.2018 111.928 52.5698 111.928H50.5298V117.688ZM61.5239 114.1H65.6999V115.384H61.5239V114.1ZM61.6439 117.7H66.3839V119.008H60.0839V110.608H66.2159V111.916H61.6439V117.7ZM71.9269 119.128C71.2709 119.128 70.6429 119.036 70.0429 118.852C69.4429 118.66 68.9669 118.416 68.6149 118.12L69.1549 116.908C69.4909 117.172 69.9069 117.392 70.4029 117.568C70.8989 117.744 71.4069 117.832 71.9269 117.832C72.3669 117.832 72.7229 117.784 72.9949 117.688C73.2669 117.592 73.4669 117.464 73.5949 117.304C73.7229 117.136 73.7869 116.948 73.7869 116.74C73.7869 116.484 73.6949 116.28 73.5109 116.128C73.3269 115.968 73.0869 115.844 72.7909 115.756C72.5029 115.66 72.1789 115.572 71.8189 115.492C71.4669 115.412 71.1109 115.32 70.7509 115.216C70.3989 115.104 70.0749 114.964 69.7789 114.796C69.4909 114.62 69.2549 114.388 69.0709 114.1C68.8869 113.812 68.7949 113.444 68.7949 112.996C68.7949 112.54 68.9149 112.124 69.1549 111.748C69.4029 111.364 69.7749 111.06 70.2709 110.836C70.7749 110.604 71.4109 110.488 72.1789 110.488C72.6829 110.488 73.1829 110.552 73.6789 110.68C74.1749 110.808 74.6069 110.992 74.9749 111.232L74.4829 112.444C74.1069 112.22 73.7189 112.056 73.3189 111.952C72.9189 111.84 72.5349 111.784 72.1669 111.784C71.7349 111.784 71.3829 111.836 71.1109 111.94C70.8469 112.044 70.6509 112.18 70.5229 112.348C70.4029 112.516 70.3429 112.708 70.3429 112.924C70.3429 113.18 70.4309 113.388 70.6069 113.548C70.7909 113.7 71.0269 113.82 71.3149 113.908C71.6109 113.996 71.9389 114.084 72.2989 114.172C72.6589 114.252 73.0149 114.344 73.3669 114.448C73.7269 114.552 74.0509 114.688 74.3389 114.856C74.6349 115.024 74.8709 115.252 75.0469 115.54C75.2309 115.828 75.3229 116.192 75.3229 116.632C75.3229 117.08 75.1989 117.496 74.9509 117.88C74.7109 118.256 74.3389 118.56 73.8349 118.792C73.3309 119.016 72.6949 119.128 71.9269 119.128ZM78.0698 119.008V110.608H79.6298V119.008H78.0698ZM87.0258 119.128C86.3698 119.128 85.7658 119.024 85.2138 118.816C84.6698 118.6 84.1938 118.3 83.7858 117.916C83.3778 117.524 83.0618 117.064 82.8378 116.536C82.6138 116.008 82.5018 115.432 82.5018 114.808C82.5018 114.184 82.6138 113.608 82.8378 113.08C83.0618 112.552 83.3778 112.096 83.7858 111.712C84.2018 111.32 84.6858 111.02 85.2378 110.812C85.7898 110.596 86.3938 110.488 87.0498 110.488C87.7618 110.488 88.4018 110.604 88.9698 110.836C89.5458 111.068 90.0298 111.408 90.4218 111.856L89.4378 112.816C89.1098 112.488 88.7538 112.248 88.3698 112.096C87.9938 111.936 87.5778 111.856 87.1218 111.856C86.6818 111.856 86.2738 111.928 85.8978 112.072C85.5218 112.216 85.1978 112.42 84.9258 112.684C84.6538 112.948 84.4418 113.26 84.2898 113.62C84.1458 113.98 84.0738 114.376 84.0738 114.808C84.0738 115.232 84.1458 115.624 84.2898 115.984C84.4418 116.344 84.6538 116.66 84.9258 116.932C85.1978 117.196 85.5178 117.4 85.8858 117.544C86.2538 117.688 86.6618 117.76 87.1098 117.76C87.5258 117.76 87.9258 117.696 88.3098 117.568C88.7018 117.432 89.0738 117.208 89.4258 116.896L90.3138 118.06C89.8738 118.412 89.3618 118.68 88.7778 118.864C88.2018 119.04 87.6178 119.128 87.0258 119.128ZM88.8378 117.856V114.712H90.3138V118.06L88.8378 117.856ZM93.5714 119.008V110.608H94.8554L100.123 117.076H99.4874V110.608H101.035V119.008H99.7514L94.4834 112.54H95.1194V119.008H93.5714Z" fill="black"/>
</svg>
