<svg width="37" height="36" viewBox="0 0 37 36" fill="none" xmlns="http://www.w3.org/2000/svg">
<path d="M12.8208 15.9975V22.887L30.5272 24.2183V22.421L30.6386 14.0045L30.0386 12.661L29.086 12.1846H27.7059L26.8021 12.49L12.8208 14.8326V15.9975Z" fill="white"/>
<path d="M12.7167 21.0897V8.28003Z" fill="white"/>
<path d="M30.7167 24V14.25C30.7167 13.008 29.7307 12.028 28.4967 12C27.0201 11.9665 26.08 12.1192 26.1181 15.0548M12.7167 21.0897V8.28003" stroke="#202020" stroke-width="0.5" stroke-linecap="round" stroke-linejoin="round"/>
<path d="M30.7167 24C30.7167 30 26.0157 33 20.2167 33C14.4177 33 12.4227 31.5 7.92269 24L5.56619 20.0925C4.76219 18.7905 5.40569 17.1015 6.88769 16.6215C7.37229 16.4632 7.89384 16.4578 8.38165 16.6059C8.86946 16.754 9.29993 17.0485 9.61469 17.4495L12.7167 21.0495" fill="white"/>
<path d="M30.7167 24C30.7167 30 26.0157 33 20.2167 33C14.4177 33 12.4227 31.5 7.92269 24L5.56619 20.0925C4.76219 18.7905 5.40569 17.1015 6.88769 16.6215C7.37229 16.4632 7.89384 16.4578 8.38165 16.6059C8.86946 16.754 9.29993 17.0485 9.61469 17.4495L12.7167 21.0495" stroke="#202020" stroke-width="0.5" stroke-linecap="round" stroke-linejoin="round"/>
<path d="M21.7167 16.5V11.25C21.7167 10.6533 21.9537 10.081 22.3757 9.65901C22.7976 9.23705 23.3699 9 23.9667 9V9C24.5634 9 25.1357 9.23705 25.5577 9.65901C25.9796 10.081 26.2167 10.6533 26.2167 11.25V16.5" fill="white"/>
<path d="M21.7167 16.5V11.25C21.7167 10.6533 21.9537 10.081 22.3757 9.65901C22.7976 9.23705 23.3699 9 23.9667 9V9C24.5634 9 25.1357 9.23705 25.5577 9.65901C25.9796 10.081 26.2167 10.6533 26.2167 11.25V16.5" stroke="#202020" stroke-width="0.5" stroke-linecap="round" stroke-linejoin="round"/>
<path d="M17.2167 16.5V9.75C17.2167 9.15326 17.4537 8.58097 17.8757 8.15901C18.2976 7.73705 18.8699 7.5 19.4667 7.5V7.5C20.0634 7.5 20.6357 7.73705 21.0577 8.15901C21.4796 8.58097 21.7167 9.15326 21.7167 9.75V16.5" fill="white"/>
<path d="M17.2167 16.5V9.75C17.2167 9.15326 17.4537 8.58097 17.8757 8.15901C18.2976 7.73705 18.8699 7.5 19.4667 7.5V7.5C20.0634 7.5 20.6357 7.73705 21.0577 8.15901C21.4796 8.58097 21.7167 9.15326 21.7167 9.75V16.5" stroke="#202020" stroke-width="0.5" stroke-linecap="round" stroke-linejoin="round"/>
<path d="M12.7167 16.5V3.75C12.7167 3.15326 12.9537 2.58097 13.3757 2.15901C13.7976 1.73705 14.3699 1.5 14.9667 1.5C15.5634 1.5 16.1357 1.73705 16.5577 2.15901C16.9796 2.58097 17.2167 3.15326 17.2167 3.75V16.5" fill="white"/>
<path d="M12.7167 16.5V3.75C12.7167 3.15326 12.9537 2.58097 13.3757 2.15901C13.7976 1.73705 14.3699 1.5 14.9667 1.5C15.5634 1.5 16.1357 1.73705 16.5577 2.15901C16.9796 2.58097 17.2167 3.15326 17.2167 3.75V16.5" stroke="#202020" stroke-width="0.5" stroke-linecap="round" stroke-linejoin="round"/>
</svg>
