<svg width="64" height="64" viewBox="0 0 64 64" fill="none" xmlns="http://www.w3.org/2000/svg">
<path d="M27.4289 45.5907C25.8441 45.4148 24.2853 45.0543 22.7842 44.5164C22.83 43.4375 22.8574 42.3129 22.8574 41.1426V39.602C24.2745 40.2786 25.8151 40.7495 27.4289 40.9826V29.7139C27.4289 27.8953 28.1513 26.1511 29.4373 24.8652C30.7233 23.5792 32.4674 22.8567 34.2861 22.8567H45.5548C45.1902 20.3236 44.2233 17.9149 42.7353 15.8328C41.2472 13.7506 39.2814 12.0558 37.0029 10.8905C34.7243 9.7253 32.1995 9.12362 29.6403 9.136C27.0811 9.14839 24.5622 9.77449 22.2951 10.9617C21.9335 9.46656 21.3379 8.03789 20.5305 6.72855C23.494 5.24934 26.7709 4.50759 30.0826 4.56635C33.3943 4.62511 36.6428 5.48264 39.552 7.06606C42.4613 8.64947 44.9451 10.9119 46.7925 13.6611C48.6398 16.4103 49.796 19.5649 50.1628 22.8567H57.1434C58.9621 22.8567 60.7062 23.5792 61.9922 24.8652C63.2782 26.1511 64.0007 27.8953 64.0007 29.7139V52.5713C64.0007 54.39 63.2782 56.1341 61.9922 57.4201C60.7062 58.7061 58.9621 59.4285 57.1434 59.4285H34.2861C32.4674 59.4285 30.7233 58.7061 29.4373 57.4201C28.1513 56.1341 27.4289 54.39 27.4289 52.5713V45.5907ZM50.1628 27.4282C49.6434 32.0664 47.5629 36.3903 44.2627 39.6905C40.9625 42.9908 36.6385 45.0712 32.0003 45.5907V52.5713C32.0003 53.1775 32.2411 53.7589 32.6698 54.1876C33.0985 54.6162 33.6799 54.857 34.2861 54.857H57.1434C57.7497 54.857 58.331 54.6162 58.7597 54.1876C59.1884 53.7589 59.4292 53.1775 59.4292 52.5713V29.7139C59.4292 29.1077 59.1884 28.5263 58.7597 28.0977C58.331 27.669 57.7497 27.4282 57.1434 27.4282H50.1628ZM45.5548 27.4282H34.2861C33.6799 27.4282 33.0985 27.669 32.6698 28.0977C32.2411 28.5263 32.0003 29.1077 32.0003 29.7139V40.9826C35.4197 40.4884 38.5874 38.9012 41.0304 36.4583C43.4734 34.0153 45.0605 30.8476 45.5548 27.4282ZM17.3487 29.9928C16.8687 28.2282 16.0916 26.459 14.7567 25.1013C16.9145 23.0579 18.2859 19.803 18.2859 15.9995C18.2859 12.8132 17.6413 10.6235 16.4756 8.87257C15.9583 8.11953 15.3605 7.42513 14.6927 6.8017C14.4368 6.5546 14.1777 6.31077 13.9156 6.07026C13.6367 5.80969 13.3807 5.57197 13.047 5.23825C12.3613 4.55253 12.2836 4.00395 12.2836 3.71595C12.2843 3.55587 12.3105 3.39693 12.3613 3.24509C12.5703 2.79309 12.626 2.2852 12.5198 1.79865C12.4137 1.3121 12.1516 0.873522 11.7734 0.549607C11.3951 0.225693 10.9214 0.0341671 10.4244 0.00415607C9.92727 -0.025855 9.43399 0.107291 9.01952 0.383345L9.01038 0.387917L8.99666 0.39706L8.95552 0.424489L8.81838 0.515918C8.13265 1.00502 7.472 1.52836 6.83893 2.08393C5.69606 3.09423 4.20576 4.5891 3.14975 6.37198C2.22791 7.85007 1.48806 9.43414 0.946295 11.0897C0.397718 12.7309 0 14.5092 0 15.9995C0 19.803 1.37144 23.0533 3.52918 25.1059C2.19431 26.459 1.41716 28.2282 0.937153 29.9974C2.04361e-07 33.4351 0 37.6866 0 40.9735V41.1426C0 50.5507 1.76002 56.1371 3.75318 59.4605C4.75433 61.1245 5.79663 62.1988 6.66978 62.8754C7.13504 63.2383 7.64138 63.5452 8.17837 63.7897C8.48891 63.9031 8.8134 63.9738 9.14295 64C9.52695 64 10.1075 63.7897 10.1075 63.7897C10.6445 63.5452 11.1509 63.2383 11.6161 62.8754C12.4847 62.1988 13.5361 61.1245 14.5327 59.4605C16.5259 56.1416 18.2859 50.5507 18.2859 41.1426V40.978C18.2859 37.6866 18.2859 33.4397 17.3487 29.9928ZM6.79778 28.3013C7.31436 27.7802 8.00465 27.4282 9.14295 27.4282C10.2858 27.4282 10.9715 27.7848 11.4881 28.2968C12.0641 28.8774 12.5624 29.8191 12.9373 31.1951C13.6961 33.9883 13.7144 37.6546 13.7144 41.1426C13.7144 50.0204 12.0458 54.7199 10.6104 57.1108C10.0618 58.0251 9.54524 58.6148 9.14295 58.9851C8.56816 58.4324 8.07415 57.8014 7.67551 57.1108C6.24006 54.7153 4.57148 50.0204 4.57148 41.1426C4.57148 37.6546 4.58976 33.9883 5.34863 31.1951C5.72349 29.8236 6.22178 28.8774 6.79778 28.2968V28.3013ZM9.14295 22.8567C7.38293 22.8567 4.57148 20.9001 4.57148 15.9995C4.57148 15.2086 4.80919 13.9561 5.28463 12.5389C5.71788 11.201 6.31519 9.92191 7.06293 8.73086C7.46065 8.05885 7.97723 7.40513 8.53495 6.80627C8.85038 7.36399 9.26638 7.92628 9.81496 8.47486C10.1487 8.80857 10.583 9.21087 10.9533 9.5583L11.5201 10.0886C12.0001 10.5549 12.3704 10.9617 12.6676 11.4143C13.2161 12.2326 13.7144 13.4715 13.7144 15.9995C13.7144 20.9001 10.903 22.8567 9.14295 22.8567Z" fill="#2BBEC8"/>
</svg>
