<svg width="65" height="64" viewBox="0 0 65 64" fill="none" xmlns="http://www.w3.org/2000/svg">
<path fill-rule="evenodd" clip-rule="evenodd" d="M12.938 26.6672C12.938 26.6672 14.3887 26.4716 16.4935 25.9099C22.0437 24.429 32.1377 20.4095 32.1377 10.7421C32.1377 9.33152 31.8599 7.93478 31.3201 6.6316C30.7803 5.32842 29.9891 4.14432 28.9917 3.14691C27.9943 2.1495 26.8102 1.35831 25.507 0.818513C24.2038 0.278718 22.8071 0.000888946 21.3966 0.000888946H10.8794C9.4573 -0.017407 8.04576 0.246883 6.72665 0.778425C5.40754 1.30997 4.20711 2.09818 3.19503 3.09732C2.18295 4.09647 1.37936 5.28665 0.830896 6.59881C0.282428 7.91098 0 9.319 0 10.7412C0 12.1634 0.282428 13.5714 0.830896 14.8836C1.37936 16.1957 2.18295 17.3859 3.19503 18.385C4.20711 19.3842 5.40754 20.1724 6.72665 20.7039C8.04576 21.2355 9.4573 21.4998 10.8794 21.4815H12.938V26.6672ZM16.4935 17.926H10.8794C9.92634 17.941 8.97985 17.7662 8.09501 17.4119C7.21018 17.0575 6.40468 16.5307 5.72542 15.862C5.04617 15.1934 4.50672 14.3963 4.13851 13.5171C3.7703 12.638 3.58067 11.6943 3.58067 10.7412C3.58067 9.78804 3.7703 8.84441 4.13851 7.96526C4.50672 7.08611 5.04617 6.289 5.72542 5.62034C6.40468 4.95168 7.21018 4.42485 8.09501 4.07051C8.97985 3.71617 9.92634 3.5414 10.8794 3.5564H21.3966C22.3402 3.5564 23.2746 3.74226 24.1464 4.10337C25.0182 4.46449 25.8103 4.99378 26.4776 5.66103C27.1448 6.32828 27.6741 7.12043 28.0353 7.99223C28.3964 8.86404 28.5822 9.79844 28.5822 10.7421C28.5822 15.334 25.3681 18.3917 20.993 20.5019C19.5409 21.1919 18.0363 21.7655 16.4935 22.2175V17.926ZM15.2491 46.2225C19.1779 46.2225 22.3601 43.0403 22.3601 39.1115C22.3601 35.1826 19.1779 32.0004 15.2491 32.0004C11.3202 32.0004 8.13807 35.1826 8.13807 39.1115C8.13807 43.0403 11.3202 46.2225 15.2491 46.2225ZM18.8046 39.1115C18.8046 40.0544 18.43 40.9588 17.7632 41.6256C17.0964 42.2924 16.1921 42.667 15.2491 42.667C14.3061 42.667 13.4017 42.2924 12.735 41.6256C12.0682 40.9588 11.6936 40.0544 11.6936 39.1115C11.6936 38.1685 12.0682 37.2641 12.735 36.5973C13.4017 35.9305 14.3061 35.556 15.2491 35.556C16.1921 35.556 17.0964 35.9305 17.7632 36.5973C18.43 37.2641 18.8046 38.1685 18.8046 39.1115ZM0.138183 57.3636C0.138183 52.3184 10.2056 49.778 15.2491 49.778C20.2926 49.778 30.36 52.3202 30.36 57.3636V64H0.138183V57.3636ZM3.69369 60.4445V57.3636C3.69369 57.3459 3.69369 57.3103 3.73991 57.2214C3.7968 57.1112 3.92657 56.9174 4.20746 56.6579C4.79234 56.1157 5.77188 55.5237 7.12831 54.9779C9.84827 53.8846 13.1727 53.3335 15.2491 53.3335C17.3237 53.3335 20.6517 53.8846 23.3699 54.9779C24.7245 55.5237 25.7058 56.1157 26.2907 56.6579C26.5716 56.9174 26.7014 57.1112 26.7583 57.2197C26.8045 57.3085 26.8045 57.3476 26.8045 57.3619V60.4445H3.69369ZM56.1374 39.1115C56.1374 43.0403 52.9552 46.2225 49.0264 46.2225C45.0976 46.2225 41.9154 43.0403 41.9154 39.1115C41.9154 35.1826 45.0976 32.0004 49.0264 32.0004C52.9552 32.0004 56.1374 35.1826 56.1374 39.1115ZM49.0264 42.667C49.9694 42.667 50.8737 42.2924 51.5405 41.6256C52.2073 40.9588 52.5819 40.0544 52.5819 39.1115C52.5819 38.1685 52.2073 37.2641 51.5405 36.5973C50.8737 35.9305 49.9694 35.556 49.0264 35.556C48.0834 35.556 47.1791 35.9305 46.5123 36.5973C45.8455 37.2641 45.4709 38.1685 45.4709 39.1115C45.4709 40.0544 45.8455 40.9588 46.5123 41.6256C47.1791 42.2924 48.0834 42.667 49.0264 42.667ZM33.9155 57.3636C33.9155 52.3184 43.9829 49.778 49.0264 49.778C54.0699 49.778 64.1373 52.3202 64.1373 57.3636V64H33.9155V57.3636ZM37.471 60.4445V57.3636C37.471 57.3459 37.471 57.3103 37.5172 57.2214C37.5741 57.1112 37.7039 56.9174 37.983 56.6579C38.5696 56.1157 39.551 55.5237 40.9056 54.9779C43.6256 53.8846 46.95 53.3335 49.0264 53.3335C51.101 53.3335 54.429 53.8846 57.1472 54.9779C58.5018 55.5237 59.4831 56.1157 60.0698 56.6579C60.3489 56.9174 60.4787 57.1112 60.5356 57.2197C60.5818 57.3085 60.5818 57.3476 60.5818 57.3619V60.4445H37.471ZM49.2042 27.5667C51.2841 28.2209 52.7597 28.4449 52.7597 28.4449V23.2592H53.3961C54.8182 23.2775 56.2297 23.0132 57.5488 22.4817C58.8679 21.9502 60.0684 21.1619 61.0804 20.1628C62.0925 19.1637 62.8961 17.9735 63.4446 16.6613C63.993 15.3491 64.2755 13.9411 64.2755 12.5189C64.2755 11.0968 63.993 9.68874 63.4446 8.37657C62.8961 7.0644 62.0925 5.87422 61.0804 4.87507C60.0684 3.87593 58.8679 3.08772 57.5488 2.55618C56.2297 2.02464 54.8182 1.76035 53.3961 1.77864H46.4344C43.5857 1.77864 40.8536 2.9103 38.8393 4.92466C36.8249 6.93902 35.6932 9.67109 35.6932 12.5198C35.6932 21.9348 44.2033 25.9952 49.2042 27.5667ZM53.3961 19.7037H49.2042V23.8157C48.0753 23.4125 46.9783 22.9252 45.9224 22.3579C42.2176 20.3473 39.2487 17.3304 39.2487 12.518C39.2492 10.6126 40.0065 8.78535 41.354 7.43816C42.7015 6.09097 44.529 5.33415 46.4344 5.33415H53.3961C54.3491 5.31916 55.2956 5.49392 56.1805 5.84826C57.0653 6.2026 57.8708 6.72944 58.5501 7.39809C59.2293 8.06675 59.7688 8.86386 60.137 9.74301C60.5052 10.6222 60.6948 11.5658 60.6948 12.5189C60.6948 13.4721 60.5052 14.4157 60.137 15.2949C59.7688 16.174 59.2293 16.9711 58.5501 17.6398C57.8708 18.3084 57.0653 18.8353 56.1805 19.1896C55.2956 19.544 54.3491 19.7187 53.3961 19.7037Z" fill="#EA3F3F"/>
</svg>
