<svg width="64" height="64" viewBox="0 0 64 64" fill="none" xmlns="http://www.w3.org/2000/svg">
<path d="M22.8571 64H4.57143C3.35938 63.9988 2.19732 63.5168 1.34028 62.6597C0.48323 61.8027 0.00121023 60.6406 0 59.4286V50.2857C0.00121023 49.0737 0.48323 47.9116 1.34028 47.0546C2.19732 46.1975 3.35938 45.7155 4.57143 45.7143H22.8571C24.0692 45.7155 25.2312 46.1975 26.0883 47.0546C26.9453 47.9116 27.4274 49.0737 27.4286 50.2857V59.4286C27.4274 60.6406 26.9453 61.8027 26.0883 62.6597C25.2312 63.5168 24.0692 63.9988 22.8571 64ZM4.57143 50.2857V59.4286H22.8571V50.2857H4.57143ZM59.4286 41.1429H22.8571C21.6451 41.1416 20.483 40.6596 19.626 39.8026C18.7689 38.9455 18.2869 37.7835 18.2857 36.5714V27.4286C18.2869 26.2165 18.7689 25.0545 19.626 24.1974C20.483 23.3404 21.6451 22.8584 22.8571 22.8571H59.4286C60.6406 22.8584 61.8027 23.3404 62.6597 24.1974C63.5168 25.0545 63.9988 26.2165 64 27.4286V36.5714C63.9988 37.7835 63.5168 38.9455 62.6597 39.8026C61.8027 40.6596 60.6406 41.1416 59.4286 41.1429ZM22.8571 27.4286V36.5714H59.4286V27.4286H22.8571ZM32 18.2857H4.57143C3.35938 18.2845 2.19732 17.8025 1.34028 16.9454C0.48323 16.0884 0.00121023 14.9263 0 13.7143V4.57143C0.00121023 3.35938 0.48323 2.19732 1.34028 1.34028C2.19732 0.48323 3.35938 0.00121023 4.57143 0H32C33.212 0.00121023 34.3741 0.48323 35.2312 1.34028C36.0882 2.19732 36.5702 3.35938 36.5714 4.57143V13.7143C36.5702 14.9263 36.0882 16.0884 35.2312 16.9454C34.3741 17.8025 33.212 18.2845 32 18.2857ZM4.57143 4.57143V13.7143H32V4.57143H4.57143Z" fill="#F29100"/>
<path d="M22.8571 64H4.57143C3.35938 63.9988 2.19732 63.5168 1.34028 62.6597C0.48323 61.8027 0.00121023 60.6406 0 59.4286V50.2857C0.00121023 49.0737 0.48323 47.9116 1.34028 47.0546C2.19732 46.1975 3.35938 45.7155 4.57143 45.7143H22.8571C24.0692 45.7155 25.2312 46.1975 26.0883 47.0546C26.9453 47.9116 27.4274 49.0737 27.4286 50.2857V59.4286C27.4274 60.6406 26.9453 61.8027 26.0883 62.6597C25.2312 63.5168 24.0692 63.9988 22.8571 64ZM4.57143 50.2857V59.4286H22.8571V50.2857H4.57143ZM59.4286 41.1429H22.8571C21.6451 41.1416 20.483 40.6596 19.626 39.8026C18.7689 38.9455 18.2869 37.7835 18.2857 36.5714V27.4286C18.2869 26.2165 18.7689 25.0545 19.626 24.1974C20.483 23.3404 21.6451 22.8584 22.8571 22.8571H59.4286C60.6406 22.8584 61.8027 23.3404 62.6597 24.1974C63.5168 25.0545 63.9988 26.2165 64 27.4286V36.5714C63.9988 37.7835 63.5168 38.9455 62.6597 39.8026C61.8027 40.6596 60.6406 41.1416 59.4286 41.1429ZM22.8571 27.4286V36.5714H59.4286V27.4286H22.8571ZM32 18.2857H4.57143C3.35938 18.2845 2.19732 17.8025 1.34028 16.9454C0.48323 16.0884 0.00121023 14.9263 0 13.7143V4.57143C0.00121023 3.35938 0.48323 2.19732 1.34028 1.34028C2.19732 0.48323 3.35938 0.00121023 4.57143 0H32C33.212 0.00121023 34.3741 0.48323 35.2312 1.34028C36.0882 2.19732 36.5702 3.35938 36.5714 4.57143V13.7143C36.5702 14.9263 36.0882 16.0884 35.2312 16.9454C34.3741 17.8025 33.212 18.2845 32 18.2857ZM4.57143 4.57143V13.7143H32V4.57143H4.57143Z" stroke="#F29100"/>
</svg>
