<svg width="83" height="67" viewBox="0 0 83 67" fill="none" xmlns="http://www.w3.org/2000/svg">
<path d="M32.5939 61.1344L32.5939 61.1344L32.6006 61.1278C36.0948 57.6336 37.8294 53.1082 37.8294 47.5977C37.8294 43.7526 36.9312 40.3936 35.1159 37.5411C33.378 34.81 30.9844 32.7353 27.9489 31.3189L36.1172 1.80169L36.2924 1.16833H35.6353H17H16.6624L16.5362 1.48153L5.62033 28.583C3.48645 33.6042 2.09345 37.3977 1.4561 39.9471C0.819045 42.4953 0.5 45.0458 0.5 47.5977C0.5 52.9864 2.23698 57.4477 5.7288 60.9395L5.72874 60.9396L5.73529 60.9459C9.35006 64.4316 13.8701 66.1683 19.2588 66.1683C24.6418 66.1683 29.101 64.4979 32.5939 61.1344ZM77.0174 61.1344L77.0175 61.1344L77.0241 61.1278C80.5183 57.6336 82.2529 53.1082 82.2529 47.5977C82.2529 43.7526 81.3547 40.3936 79.5395 37.5411C77.8015 34.81 75.4079 32.7353 72.3724 31.3189L80.5407 1.80169L80.716 1.16833H80.0588H61.4235H61.0859L60.9597 1.48153L50.0439 28.5829C47.91 33.6041 46.517 37.3977 45.8796 39.9471C45.2426 42.4953 44.9235 45.0458 44.9235 47.5977C44.9235 52.9864 46.6605 57.4477 50.1523 60.9395L50.1523 60.9396L50.1588 60.9459C53.7736 64.4316 58.2936 66.1683 63.6823 66.1683C69.0653 66.1683 73.5245 64.4979 77.0174 61.1344Z" stroke="#202020"/>
</svg>
